<svg id="svg" version="1.1" xmlns="http://www.w3.org/2000/svg" xmlns:xlink="http://www.w3.org/1999/xlink" width="400" height="322.1350078492936" viewBox="0, 0, 400,322.1350078492936"><g id="svgg"><path id="path0" d="M252.476 0.430 C 248.495 1.871,244.930 9.734,243.846 19.466 C 243.204 25.225,242.988 28.017,242.701 34.223 C 242.236 44.281,242.417 43.604,238.676 49.271 C 236.918 51.935,235.479 54.290,235.479 54.504 C 235.479 54.718,235.355 54.940,235.203 54.997 C 234.388 55.307,225.427 71.657,225.044 73.535 C 224.998 73.758,224.859 74.017,224.734 74.111 C 224.609 74.204,223.573 76.253,222.431 78.663 C 217.687 88.678,217.552 88.873,212.538 92.937 C 208.896 95.889,204.253 98.965,200.931 100.624 C 199.642 101.268,198.137 102.133,197.588 102.546 C 197.038 102.959,196.438 103.297,196.254 103.297 C 196.070 103.297,195.390 103.767,194.742 104.343 C 194.094 104.918,191.939 106.185,189.953 107.159 C 186.452 108.876,178.972 112.967,173.729 116.032 C 172.215 116.918,169.642 118.925,167.450 120.931 C 165.407 122.800,163.658 124.331,163.562 124.331 C 163.361 124.333,155.437 132.866,152.967 135.740 C 151.247 137.743,147.401 143.171,147.703 143.171 C 147.798 143.171,147.663 143.418,147.404 143.721 C 147.145 144.023,146.947 144.396,146.963 144.549 C 146.979 144.702,146.863 144.914,146.704 145.020 C 146.343 145.260,143.799 149.547,143.799 149.915 C 143.799 150.063,142.960 151.892,141.934 153.978 C 138.021 161.933,132.596 180.426,130.762 192.058 C 129.968 197.089,128.801 204.965,128.793 205.338 C 128.788 205.597,128.606 207.363,128.389 209.262 C 127.437 217.609,128.028 232.467,129.675 241.601 C 130.018 243.501,130.374 245.549,130.466 246.154 C 130.559 246.758,130.794 247.818,130.990 248.509 C 131.185 249.199,131.392 250.047,131.449 250.392 C 131.961 253.512,134.015 261.118,136.466 268.968 C 141.008 283.512,141.317 286.990,138.793 295.160 C 137.038 300.842,135.594 301.568,124.490 302.349 C 121.900 302.532,117.449 302.956,114.600 303.291 C 109.999 303.834,102.950 304.558,97.959 305.002 C 95.992 305.176,93.284 305.351,85.243 305.823 C 80.346 306.110,77.101 306.396,73.312 306.877 C 69.848 307.316,62.529 307.752,54.160 308.017 C 41.422 308.421,32.578 308.860,28.885 309.271 C 21.428 310.103,15.061 308.597,12.336 305.359 C 8.951 301.337,17.754 284.303,30.926 269.388 C 32.840 267.220,41.468 258.399,41.674 258.399 C 41.741 258.399,42.953 257.435,44.367 256.257 C 45.782 255.079,47.857 253.424,48.980 252.579 C 50.102 251.733,51.068 250.931,51.125 250.795 C 51.183 250.660,51.355 250.549,51.509 250.549 C 51.663 250.549,53.305 249.612,55.157 248.467 C 57.979 246.723,66.920 242.084,67.975 241.817 C 68.148 241.773,69.560 241.332,71.115 240.837 C 77.247 238.883,86.094 237.781,88.322 238.694 C 89.839 239.315,81.534 247.216,73.116 253.162 C 70.562 254.965,70.720 254.984,70.894 252.888 L 71.038 251.145 70.134 251.362 C 68.841 251.673,67.580 252.356,65.759 253.730 C 64.883 254.391,62.339 255.793,60.106 256.845 C 52.328 260.506,51.578 260.905,50.244 262.089 C 45.687 266.133,51.673 272.527,60.015 272.527 C 63.843 272.527,70.652 270.797,74.725 268.790 C 75.330 268.492,76.806 267.763,78.005 267.170 C 80.237 266.066,84.935 263.110,86.342 261.923 C 86.774 261.559,88.116 260.429,89.325 259.411 C 104.509 246.627,103.918 233.753,87.982 230.116 C 62.021 224.191,18.651 248.191,4.878 276.104 C -1.630 289.292,-1.774 304.023,4.519 312.842 C 6.164 315.147,11.931 319.282,11.931 318.156 C 11.931 318.057,12.117 318.131,12.345 318.320 C 13.063 318.916,16.667 319.578,20.251 319.773 C 26.873 320.133,28.151 320.240,35.950 321.088 L 43.799 321.941 67.975 321.879 C 90.653 321.820,95.795 321.762,113.658 321.365 C 117.543 321.279,126.039 321.199,132.537 321.188 C 139.035 321.178,147.795 321.034,152.003 320.868 C 156.211 320.703,167.355 320.562,176.766 320.556 C 186.177 320.549,197.692 320.408,202.355 320.243 C 207.017 320.077,218.179 319.860,227.159 319.759 C 245.305 319.555,245.158 319.558,261.224 319.025 C 295.317 317.895,303.565 316.100,307.226 309.015 C 309.966 303.713,308.819 297.953,303.449 290.062 C 299.189 283.802,298.422 281.595,297.502 272.960 C 296.774 266.129,296.864 250.086,297.668 243.179 C 297.828 241.802,297.957 237.917,297.955 234.545 C 297.953 230.779,298.141 226.961,298.442 224.647 C 298.712 222.575,299.004 220.285,299.091 219.558 L 299.249 218.237 300.724 219.177 C 301.534 219.694,302.478 220.288,302.821 220.498 C 303.164 220.708,303.632 221.129,303.863 221.434 C 305.438 223.521,321.276 232.419,323.309 232.358 C 323.350 232.357,323.562 232.423,323.780 232.504 C 323.998 232.585,328.061 233.981,332.810 235.605 C 352.508 242.345,355.130 243.723,364.518 252.271 C 380.320 266.659,399.210 263.851,399.912 247.009 L 400.086 242.857 398.037 238.776 C 394.497 231.723,391.121 227.992,378.179 216.830 C 375.243 214.299,372.488 211.896,372.057 211.491 C 371.465 210.937,360.624 201.527,352.904 194.868 C 352.645 194.644,351.206 193.513,349.707 192.354 C 348.208 191.196,346.087 189.439,344.996 188.452 C 343.904 187.464,340.962 184.939,338.460 182.841 C 323.520 170.314,323.098 169.410,323.094 149.922 C 323.091 133.678,323.073 133.721,332.948 127.640 C 352.667 115.499,359.720 99.987,356.509 75.824 C 356.341 74.559,354.238 66.989,353.893 66.405 C 353.791 66.232,353.666 65.823,353.615 65.495 C 353.439 64.367,352.189 60.439,351.880 60.047 C 351.710 59.831,351.649 59.655,351.743 59.655 C 351.838 59.655,350.858 56.511,349.566 52.669 C 348.273 48.827,347.168 45.471,347.108 45.212 C 347.049 44.953,346.775 43.875,346.500 42.816 C 345.759 39.968,344.814 34.179,344.427 30.111 C 341.850 3.020,338.169 -1.059,324.707 8.256 C 319.428 11.909,310.535 20.515,309.818 22.665 C 309.722 22.955,309.154 22.942,307.358 22.612 C 304.893 22.159,304.873 22.157,300.942 21.851 C 299.560 21.743,297.865 21.579,297.174 21.485 C 296.484 21.391,293.394 21.287,290.308 21.254 L 284.698 21.193 279.633 15.961 C 268.040 3.985,258.201 -1.642,252.476 0.430 " stroke="none" fill="#041c1c" fill-rule="evenodd"></path><path id="path1" d="" stroke="none" fill="#042424" fill-rule="evenodd"></path><path id="path2" d="" stroke="none" fill="#081c1c" fill-rule="evenodd"></path><path id="path3" d="" stroke="none" fill="#041c24" fill-rule="evenodd"></path><path id="path4" d="" stroke="none" fill="#081c1c" fill-rule="evenodd"></path></g></svg>