<svg id="svg" version="1.1" xmlns="http://www.w3.org/2000/svg" xmlns:xlink="http://www.w3.org/1999/xlink" width="400" height="322.0125786163522" viewBox="0, 0, 400,322.0125786163522"><g id="svgg"><path id="path0" d="M252.709 0.463 C 247.236 2.414,244.266 12.366,243.226 32.233 C 242.620 43.835,242.581 44.041,240.461 47.074 C 239.517 48.424,237.017 52.288,234.905 55.660 C 231.276 61.455,229.882 64.131,221.219 81.942 C 217.174 90.258,211.311 95.721,200.697 101.067 C 198.061 102.394,195.108 104.237,194.788 104.754 C 194.667 104.951,193.207 105.756,191.544 106.543 C 189.882 107.330,186.375 109.187,183.750 110.669 C 181.126 112.152,177.355 114.262,175.371 115.358 C 172.695 116.836,170.966 118.084,168.679 120.186 C 166.983 121.746,165.103 123.396,164.502 123.853 C 162.951 125.033,152.399 136.562,150.727 138.904 C 148.851 141.531,144.567 148.631,144.032 150.000 C 143.796 150.605,142.899 152.516,142.040 154.245 C 135.093 168.232,128.739 197.489,128.107 218.396 C 127.757 229.983,131.224 253.327,134.738 263.050 C 140.639 279.380,141.560 285.769,139.270 294.497 C 137.499 301.244,136.127 302.054,125.157 302.823 C 122.476 303.012,117.877 303.447,114.937 303.790 C 106.454 304.782,97.029 305.613,88.365 306.133 C 83.954 306.397,77.020 306.961,72.956 307.385 C 68.598 307.839,61.438 308.295,55.503 308.497 C 42.594 308.934,34.802 309.314,29.874 309.745 C 20.913 310.529,16.101 309.627,12.330 306.454 C 8.330 303.088,12.725 292.216,24.409 276.572 C 41.464 253.736,65.466 238.341,84.182 238.232 C 89.402 238.201,89.573 238.320,87.874 240.792 C 86.135 243.322,73.624 253.724,70.245 255.448 L 69.263 255.949 69.852 254.795 C 71.715 251.139,70.162 251.041,65.123 254.495 C 63.913 255.324,60.617 257.060,57.798 258.352 C 49.232 262.279,47.777 263.749,49.167 267.075 C 53.302 276.970,75.012 272.051,90.608 257.684 C 109.792 240.012,96.474 224.693,67.296 230.870 C 31.446 238.459,-0.877 270.202,0.103 296.855 C 0.678 312.479,6.162 318.689,20.126 319.529 C 22.807 319.690,29.387 320.254,34.748 320.782 L 44.497 321.742 70.881 321.709 C 85.392 321.691,97.379 321.606,97.517 321.521 C 97.656 321.435,109.698 321.220,124.278 321.042 C 179.622 320.368,202.131 320.069,204.717 319.975 C 206.187 319.921,217.508 319.720,229.874 319.527 C 242.241 319.335,254.198 319.049,256.447 318.893 C 258.695 318.736,262.905 318.596,265.802 318.581 C 291.487 318.448,303.692 315.621,307.025 309.034 C 309.777 303.595,308.623 298.126,303.000 289.964 C 299.211 284.464,298.284 282.088,297.592 276.101 C 296.468 266.391,296.433 253.282,297.503 242.871 C 297.665 241.285,297.798 237.181,297.797 233.751 C 297.795 229.888,297.979 226.140,298.280 223.899 C 298.547 221.910,298.839 219.688,298.928 218.961 L 299.091 217.640 300.882 218.772 C 301.867 219.394,303.381 220.495,304.245 221.218 C 306.674 223.247,313.392 227.602,316.548 229.193 C 318.692 230.273,324.224 232.321,332.862 235.232 C 352.389 241.812,355.223 243.300,365.079 252.144 C 381.498 266.877,399.945 263.290,399.994 245.357 C 400.006 240.817,395.851 233.838,389.178 227.192 C 384.530 222.562,355.655 197.260,350.786 193.550 C 349.230 192.364,346.753 190.317,345.283 189.000 C 343.813 187.684,340.912 185.184,338.836 183.446 C 330.093 176.122,324.849 170.223,323.654 166.367 C 322.730 163.387,322.844 136.823,323.788 135.063 C 324.874 133.038,327.561 130.637,331.604 128.079 C 345.180 119.491,351.037 112.658,355.006 100.777 C 359.279 87.991,358.285 79.429,349.387 52.358 C 345.756 41.314,345.182 38.671,344.018 27.671 C 342.051 9.061,339.880 3.773,334.211 3.774 C 329.644 3.775,312.028 17.620,310.511 22.401 C 310.308 23.042,309.100 23.117,306.952 22.622 C 304.523 22.062,299.414 21.660,291.905 21.436 L 284.596 21.218 278.697 15.221 C 267.356 3.691,258.216 -1.500,252.709 0.463 " stroke="none" fill="#ecfcec" fill-rule="evenodd"></path><path id="path1" d="" stroke="none" fill="#f0fcec" fill-rule="evenodd"></path><path id="path2" d="" stroke="none" fill="#f0fcec" fill-rule="evenodd"></path><path id="path3" d="" stroke="none" fill="#f0fcec" fill-rule="evenodd"></path><path id="path4" d="" stroke="none" fill="#f0fcec" fill-rule="evenodd"></path></g></svg>