<?xml version="1.0" encoding="UTF-8"?>
<svg version="1.1" xmlns="http://www.w3.org/2000/svg" width="3165" height="1479">
<path d="M0 0 C18.78006021 11.41076459 37.23995784 25.30050114 51.61328125 42.03515625 C52.19722656 42.69 52.78117188 43.34484375 53.3828125 44.01953125 C54.48815709 45.27915912 55.58518629 46.54744563 56.63037109 47.85742188 C62.70562937 55.54546722 62.70562937 55.54546722 71.41796875 59.3359375 C74.87570263 59.6526131 78.30082403 59.60714775 81.77001953 59.45263672 C92.91753851 59.01198282 103.87220878 59.43852758 114.96289062 60.51953125 C117.0565951 60.72322186 119.15113142 60.91519504 121.24609375 61.10546875 C130.01839237 61.92001187 138.71512062 63.01531684 147.42578125 64.34765625 C148.13734375 63.20296875 148.13734375 63.20296875 148.86328125 62.03515625 C156.78296145 50.21140835 166.68260578 40.3660339 177.75390625 31.52734375 C180.15625792 29.56753055 182.41357903 27.52778163 184.67578125 25.41015625 C190.73321193 19.98010231 197.53151583 15.63064552 204.42578125 11.34765625 C205.30967529 10.79851563 205.30967529 10.79851563 206.21142578 10.23828125 C213.67715718 5.68967991 220.74617543 1.87767257 229.64453125 3.8359375 C238.31690717 6.73212274 242.37809633 12.44237107 246.42578125 20.34765625 C252.54483404 34.04365696 254.00723644 48.91778222 255.55981445 63.66647339 C256.07718622 68.55720782 256.6244234 73.44458606 257.171875 78.33203125 C257.33277115 79.77067787 257.33277115 79.77067787 257.49691772 81.23838806 C258.36474524 88.93721281 259.31790099 96.6165927 260.42578125 104.28515625 C260.55525146 105.22576904 260.68472168 106.16638184 260.81811523 107.13549805 C263.55651092 125.39730354 269.00136999 142.8671943 274.86911011 160.32489014 C276.89633788 166.36840685 278.88402588 172.42493157 280.875 178.48046875 C281.46502556 180.27310654 281.46502556 180.27310654 282.06697083 182.10195923 C298.7674463 232.90096141 309.50590059 283.8258588 284.36328125 334.16015625 C281.08420269 340.45801865 277.46550065 346.50961016 273.42578125 352.34765625 C272.79542969 353.27578125 272.16507813 354.20390625 271.515625 355.16015625 C257.78167912 374.46469326 239.49474355 387.63916859 219.61425781 399.98291016 C202.0736258 410.51176892 202.0736258 410.51176892 191.42578125 427.34765625 C191.31390734 430.12893789 191.25809966 432.8858062 191.2487793 435.66772461 C191.2422081 436.51695496 191.2356369 437.3661853 191.22886658 438.2411499 C191.20913185 441.05660087 191.19746626 443.8719983 191.1875 446.6875 C191.18342447 447.65166903 191.17934895 448.61583805 191.17514992 449.60922432 C191.15428149 454.71937979 191.13998704 459.8295084 191.13061523 464.93969727 C191.11959125 470.1950041 191.08524011 475.44988278 191.04544353 480.70503902 C191.01916821 484.76394891 191.0109134 488.82275886 191.00733376 492.88174629 C191.00249047 494.81724478 190.99094167 496.75273949 190.97229576 498.68815422 C190.79733391 518.06421482 194.81599305 531.84064834 208.62890625 546.01171875 C210.3696223 547.7594214 212.12256418 549.49321525 213.88525391 551.21875 C215.66951771 552.96652082 217.43726827 554.72974664 219.203125 556.49609375 C225.97232593 563.22309342 232.93162716 569.43008213 240.42578125 575.34765625 C246.65943571 580.47974272 252.77725174 585.70842487 258.67578125 591.22265625 C263.86521556 595.99602805 269.39580618 600.21701612 275.02197266 604.46044922 C281.70786423 609.51751698 288.09342571 614.85850287 294.42578125 620.34765625 C295.68726375 621.43386818 296.94899238 622.51979432 298.2109375 623.60546875 C303.75072761 628.380815 309.26516401 633.17579524 314.67578125 638.09765625 C317.96871091 641.08628878 321.33894894 643.9314923 324.80078125 646.72265625 C329.35519048 650.4046716 333.6632569 654.27665982 337.94702148 658.26342773 C341.15841532 661.23452375 344.45187888 664.04712213 347.86328125 666.78515625 C352.6444065 670.6306944 357.12223647 674.7211257 361.59619141 678.91259766 C364.87798981 681.96960208 368.2268479 684.86469731 371.73828125 687.66015625 C377.29197586 692.11451248 382.43933588 696.95214369 387.59301758 701.85668945 C390.83100906 704.93480027 394.09533683 707.95093522 397.48046875 710.8671875 C407.57869984 719.64398238 416.66027605 729.58513645 423.24267578 741.27441406 C424.09908147 742.77515635 424.98409186 744.25969424 425.88623047 745.73339844 C436.05199384 762.44085746 437.50129175 776.46461792 433.00854492 795.41137695 C429.94150633 805.60186001 418.67455149 816.26734983 409.59765625 821.38671875 C393.68170688 828.42866757 375.83967076 825.92577595 359.92578125 820.16015625 C345.01005603 814.02915263 331.70650354 806.05465153 320.45703125 794.3671875 C303.12146572 777.13163485 281.95013871 765.23750741 259.42578125 756.34765625 C258.60045898 756.01717285 257.77513672 755.68668945 256.92480469 755.34619141 C243.6839957 750.07585016 230.22439838 745.61966644 216.6619873 741.26623535 C184.56340446 730.96110988 184.56340446 730.96110988 170.42578125 724.34765625 C169.77013184 724.04263184 169.11448242 723.73760742 168.43896484 723.42333984 C152.88462611 716.0223888 138.19636945 705.85652373 124.95092773 694.89916992 C121.29233574 691.8928257 117.57010007 689.60158403 113.42578125 687.34765625 C113.36519531 688.50523437 113.30460938 689.6628125 113.2421875 690.85546875 C113.15772623 692.39454082 113.07308107 693.9336028 112.98828125 695.47265625 C112.92930664 696.61347656 112.92930664 696.61347656 112.86914062 697.77734375 C112.80629883 698.89882812 112.80629883 698.89882812 112.7421875 700.04296875 C112.70552979 700.72375488 112.66887207 701.40454102 112.63110352 702.10595703 C112.42578125 704.34765625 112.42578125 704.34765625 111.92138672 706.99462891 C111.26451272 711.43872124 111.23049743 715.8139956 111.1796875 720.30078125 C111.14811942 722.29036989 111.11620527 724.27995307 111.08398438 726.26953125 C111.06859619 727.30400391 111.05320801 728.33847656 111.03735352 729.40429688 C110.774578 746.50431528 110.26124769 763.46825279 108.67919922 780.50268555 C107.59208305 792.70708319 107.25900586 804.7919281 107.30078125 817.03515625 C107.30360611 818.29264175 107.30360611 818.29264175 107.30648804 819.57553101 C107.34046066 837.981186 107.34046066 837.981186 108.42578125 856.34765625 C108.55509033 857.82081299 108.55509033 857.82081299 108.68701172 859.32373047 C110.87563628 882.93140652 116.26232839 900.54328149 130.4765625 919.64453125 C140.956677 934.17807681 145.31878238 948.53475934 143.42578125 966.34765625 C141.35460486 976.41264262 135.93091193 983.90232199 127.74609375 989.92578125 C121.01164313 994.05261631 114.32416388 996.47785158 106.67578125 998.41015625 C105.66427002 998.66764648 104.65275879 998.92513672 103.6105957 999.19042969 C85.43565869 1003.68116023 67.07449563 1005.20530198 48.42578125 1006.34765625 C47.54809082 1006.40163574 46.67040039 1006.45561523 45.76611328 1006.51123047 C35.27996522 1007.12129628 24.78541281 1007.37252624 14.28515625 1007.59375 C12.77571442 1007.62560143 12.77571442 1007.62560143 11.23577881 1007.65809631 C6.13483237 1007.76425899 1.03385763 1007.86436723 -4.06738281 1007.95532227 C-5.99674491 1007.99234391 -7.9261069 1008.02937167 -9.85546875 1008.06640625 C-10.71126526 1008.07993637 -11.56706177 1008.09346649 -12.4487915 1008.10740662 C-17.58322122 1008.2090921 -22.68683326 1008.47384468 -27.81005859 1008.83203125 C-35.37782105 1009.35707964 -42.9371537 1009.66308673 -50.51953125 1009.87890625 C-51.22591862 1009.89944565 -51.93230598 1009.91998505 -52.66009903 1009.94114685 C-74.25088917 1010.55831947 -95.85138956 1010.66821365 -117.44921875 1010.84765625 C-125.71748837 1010.91643769 -133.98572231 1010.98794099 -142.25390625 1011.06640625 C-143.26890261 1011.0759584 -144.28389896 1011.08551056 -145.32965279 1011.09535217 C-157.85065525 1011.2172186 -170.36004107 1011.44534361 -182.875 1011.84765625 C-198.51902303 1012.34734847 -214.16134117 1012.50984809 -229.8125 1012.62890625 C-231.69533691 1012.64329491 -231.69533691 1012.64329491 -233.61621094 1012.65797424 C-244.02532937 1012.73602934 -254.43450444 1012.80515967 -264.84368896 1012.87371826 C-301.96336507 1013.02738853 -301.96336507 1013.02738853 -339.06877136 1013.94604492 C-375.24914994 1015.29489499 -411.47461651 1015.51961003 -447.67567062 1015.82017899 C-457.91143093 1015.90609515 -468.14712833 1015.9992503 -478.3828125 1016.09375 C-479.49881144 1016.10398634 -480.61481037 1016.11422268 -481.76462746 1016.12476921 C-497.35463349 1016.26926289 -512.94087526 1016.48563985 -528.52880859 1016.77514648 C-542.87651325 1017.03971027 -557.22486202 1017.20642105 -571.57421875 1017.34765625 C-573.20816967 1017.36408424 -573.20816967 1017.36408424 -574.8751297 1017.38084412 C-595.19124742 1017.5831672 -615.50719392 1017.72378372 -635.82421875 1017.78515625 C-636.52941918 1017.78731266 -637.23461961 1017.78946907 -637.96118975 1017.79169083 C-677.16094109 1017.90550846 -716.00954022 1017.48352842 -754.93994141 1012.36122131 C-762.73318994 1011.35811819 -770.48967286 1010.88856678 -778.34341431 1010.68995667 C-793.96601173 1010.24196749 -810.2399715 1004.57697362 -821.6171875 993.55859375 C-838.64626416 974.32015584 -840.84827981 945.94753769 -839.57421875 921.34765625 C-839.03769389 915.58271462 -837.92496001 909.97194434 -836.57421875 904.34765625 C-836.41324707 903.66815918 -836.25227539 902.98866211 -836.08642578 902.28857422 C-827.54737633 867.51717114 -805.88588682 837.94965138 -780.57421875 813.34765625 C-777.89324576 810.68389657 -775.23343774 808.00141786 -772.59375 805.296875 C-766.24840851 798.82143331 -759.85560858 792.77963647 -752.57421875 787.34765625 C-751.47914961 786.51174109 -750.38409873 785.67580201 -749.2890625 784.83984375 C-720.70756227 763.24467227 -688.33018356 746.23811401 -654.57421875 734.34765625 C-653.70216797 734.03699219 -652.83011719 733.72632813 -651.93164062 733.40625 C-616.34334561 720.88880701 -575.98818037 714.90497968 -540.48828125 730.72265625 C-532.05664646 734.9731242 -524.73308747 740.71514301 -521.26171875 749.75 C-517.82791553 762.7243133 -519.57887321 775.78264404 -526.07421875 787.47265625 C-529.94685443 794.01992454 -534.77229572 799.4987489 -540.11669922 804.87548828 C-541.58302582 806.35655183 -543.01932252 807.86248658 -544.453125 809.375 C-570.14548483 836.16962967 -609.35429737 859.64215968 -647.26171875 860.72265625 C-659.61552422 860.38876962 -670.74502348 856.67701331 -679.87109375 848.26953125 C-683.54358454 844.12534439 -684.57421875 840.18287719 -684.57421875 834.72265625 C-682.69928426 828.39475234 -678.48890804 824.86447303 -672.88671875 821.72265625 C-672.31002441 821.39910156 -671.73333008 821.07554687 -671.13916016 820.7421875 C-663.6402447 816.65837722 -655.77431363 813.30167506 -647.99829102 809.78857422 C-640.26664607 806.25060231 -633.3910649 802.44869759 -626.57421875 797.34765625 C-620.36140316 792.88470345 -620.36140316 792.88470345 -616.19921875 792.59765625 C-614.40484375 792.47390625 -614.40484375 792.47390625 -612.57421875 792.34765625 C-612.90421875 795.64765625 -613.23421875 798.94765625 -613.57421875 802.34765625 C-603.77618338 796.63905514 -595.2431586 789.60966276 -586.57421875 782.34765625 C-585.9615918 781.83557617 -585.34896484 781.32349609 -584.71777344 780.79589844 C-580.98347508 777.6692704 -577.27532211 774.51347607 -573.57421875 771.34765625 C-572.80335938 770.70183594 -572.0325 770.05601562 -571.23828125 769.390625 C-565.49272293 764.5146052 -559.74717669 759.29427776 -556.57421875 752.34765625 C-589.73440656 748.11985965 -624.21164407 761.21662297 -652.57421875 777.34765625 C-653.38745605 777.8065625 -654.20069336 778.26546875 -655.03857422 778.73828125 C-672.63971314 788.74697419 -688.82763527 800.45193257 -703.94897461 813.91137695 C-705.08152551 814.91224776 -706.22378276 815.90219651 -707.37329102 816.88354492 C-713.23707458 821.91144159 -718.68844862 827.31355306 -724.13671875 832.78515625 C-725.04357422 833.68814453 -725.95042969 834.59113281 -726.88476562 835.52148438 C-731.99098711 840.63511155 -736.89105806 845.84534137 -741.57421875 851.34765625 C-742.86005859 852.81138672 -742.86005859 852.81138672 -744.171875 854.3046875 C-761.09901312 873.91441486 -776.46696918 895.62491459 -788.60693359 918.52734375 C-789.55419352 920.30997121 -790.526858 922.07902495 -791.5 923.84765625 C-796.9452371 934.10848846 -804.3377204 949.33344994 -801.57421875 961.34765625 C-797.46086571 968.98674047 -788.79057372 971.8755668 -780.94921875 974.61328125 C-769.54605549 977.98671705 -759.26371772 977.68571464 -747.59642029 976.68296814 C-732.26925257 975.37405416 -716.92947743 974.58144123 -701.56432724 973.87954712 C-699.47710435 973.78356448 -697.38998535 973.68556511 -695.30288696 973.58691406 C-680.1256055 972.86964351 -664.95222863 972.20954869 -649.76171875 971.84765625 C-635.80087908 971.49912846 -621.96942011 970.28762351 -608.07487488 968.96148682 C-600.12080939 968.20336486 -592.16123641 967.51645392 -584.19921875 966.84765625 C-583.08457748 966.75312164 -583.08457748 966.75312164 -581.94741821 966.65667725 C-573.26156827 965.92281265 -564.57599478 965.26480673 -555.875 964.73828125 C-530.83210787 963.20636517 -505.93291105 960.82867534 -480.9927845 958.13859558 C-477.42759529 957.75409386 -473.86228642 957.37071679 -470.296875 956.98828125 C-469.60658329 956.9141803 -468.91629158 956.84007935 -468.20508194 956.76373291 C-455.10511782 955.36208051 -441.99254244 954.18546585 -428.84570312 953.32226562 C-416.48183082 952.52697335 -416.48183082 952.52697335 -405.69921875 947.03515625 C-401.27027669 941.43384717 -398.68318052 936.58533737 -396.94921875 929.72265625 C-396.739021 928.89725342 -396.52882324 928.07185059 -396.31225586 927.22143555 C-391.88197139 908.86492667 -391.73459892 892.11188588 -397.28125 874.015625 C-397.54529129 873.14431442 -397.80933258 872.27300385 -398.08137512 871.37528992 C-399.8441462 865.60459446 -401.70125628 859.86986229 -403.6171875 854.1484375 C-421.09534974 801.8037513 -434.81421614 743.91404309 -432.57421875 688.34765625 C-432.53167969 687.21972656 -432.48914063 686.09179688 -432.4453125 684.9296875 C-430.12662859 628.98400645 -419.63173489 573.87326605 -402.44921875 520.66015625 C-402.15957245 519.75849731 -401.86992615 518.85683838 -401.57150269 517.92785645 C-397.85411813 506.41842162 -393.64120726 495.32927917 -388.57421875 484.34765625 C-387.94827835 482.97371298 -387.32287571 481.59952459 -386.69799805 480.22509766 C-383.30025207 472.75514607 -379.67723759 465.45839653 -375.57421875 458.34765625 C-375.16042969 457.62416992 -374.74664062 456.90068359 -374.3203125 456.15527344 C-364.95708223 439.86090544 -354.48850071 425.99526563 -341.57421875 412.34765625 C-339.51396405 410.16438584 -337.45426915 407.98059118 -335.39526367 405.79614258 C-334.00962495 404.32773656 -332.62188427 402.86131013 -331.23168945 401.3972168 C-328.20747769 398.20183035 -325.24747481 394.99290565 -322.4296875 391.61328125 C-319.93558262 388.66798572 -317.25681233 386.28180875 -314.19921875 383.91015625 C-310.7979172 381.20467952 -307.63323787 378.49431411 -304.63671875 375.34765625 C-294.88012731 365.474684 -283.43806285 359.39170267 -271.29296875 352.95703125 C-264.12516189 349.14409731 -257.10194219 345.09793122 -250.07421875 341.03515625 C-241.38430226 336.01570512 -232.66529532 331.19505556 -223.578125 326.92578125 C-220.55603673 325.33810419 -218.21215574 323.50031238 -215.57421875 321.34765625 C-213.49427149 320.07793681 -211.38743962 318.85165902 -209.26171875 317.66015625 C-208.65924316 317.31984375 -208.05676758 316.97953125 -207.43603516 316.62890625 C-204.14174326 314.77106412 -200.83417104 312.93771428 -197.5234375 311.109375 C-186.4157482 304.95721923 -175.84130427 298.42690738 -166.0078125 290.33984375 C-164.37668034 289.00456702 -162.72231604 287.69720812 -161.046875 286.41796875 C-147.14896829 275.75362739 -140.87912327 263.86926119 -133.51171875 248.28515625 C-132.49540445 246.17054374 -131.47732033 244.05678097 -130.45751953 241.94384766 C-126.66181371 234.0656775 -122.91061618 226.16653766 -119.16357422 218.26513672 C-111.5551823 202.22314837 -103.88895939 186.58672893 -94.11669922 171.7109375 C-92.5328908 169.28433644 -90.98821279 166.83658516 -89.453125 164.37890625 C-85.60225402 158.2142255 -81.75291424 152.05489854 -77.671875 146.0390625 C-76.98291138 145.02271729 -76.98291138 145.02271729 -76.2800293 143.98583984 C-75.42512071 142.73272673 -74.56381704 141.48393956 -73.69458008 140.24072266 C-68.80603963 133.09886256 -68.11653867 126.51630685 -67.51171875 118.09765625 C-67.42720459 116.99719971 -67.34269043 115.89674316 -67.25561523 114.76293945 C-66.68969192 107.02279921 -66.37186141 99.29130112 -66.13671875 91.53515625 C-63.79761367 19.27429789 -63.79761367 19.27429789 -43.16796875 -2.25 C-30.55616071 -13.34715462 -12.84320639 -7.56959192 0 0 Z " fill="#011E1E" transform="translate(839.57421875,7.65234375)"/>
<path d="M0 0 C4.93174244 4.26529076 9.02289017 9.39351153 9.75 15.9375 C9.50836274 31.03982884 -6.59473924 44.11455573 -16.25927734 54.46289062 C-18.36202018 56.72594513 -20.43309497 59.01672133 -22.5 61.3125 C-23.22574219 62.116875 -23.95148437 62.92125 -24.69921875 63.75 C-25.91386461 65.12453048 -27.10938039 66.51667327 -28.26953125 67.9375 C-33.67471492 74.50582446 -40.20205465 79.7930853 -46.66601562 85.27685547 C-49.30646458 87.52761497 -51.91995669 89.80845664 -54.53393555 92.08984375 C-60.29017094 97.11003109 -66.10191764 102.04219771 -72.04296875 106.84375 C-73.83276418 108.30308098 -75.60592775 109.78300994 -77.36328125 111.28125 C-86.44352624 119.01766897 -96.02006673 126.02021866 -105.6875 133 C-106.33686523 133.47066895 -106.98623047 133.94133789 -107.65527344 134.42626953 C-115.34090096 139.98108644 -123.15986286 145.33010635 -131.03125 150.6171875 C-131.782285 151.12236404 -132.53332001 151.62754059 -133.30711365 152.14802551 C-137.11908442 154.71168208 -140.93488215 157.26924239 -144.75805664 159.81616211 C-158.28192999 168.51228817 -158.28192999 168.51228817 -168.5625 180.625 C-169.39394531 181.97464844 -169.39394531 181.97464844 -170.2421875 183.3515625 C-174.25180461 190.69891494 -174.88922432 197.56864156 -172.6875 205.6875 C-172.3575 206.450625 -172.0275 207.21375 -171.6875 208 C-154.17315644 204.84524246 -137.78037991 196.12844787 -122.6875 187 C-121.93130371 186.54705566 -121.17510742 186.09411133 -120.39599609 185.62744141 C-109.26199169 178.9362356 -98.37411136 171.88397823 -87.5625 164.6875 C-86.9994516 164.31335968 -86.4364032 163.93921936 -85.85629272 163.55374146 C-75.95425592 156.96367591 -66.13859221 150.26662478 -57.0625 142.5625 C-56.51384277 142.09714844 -55.96518555 141.63179687 -55.39990234 141.15234375 C-52.20267841 138.40784897 -49.21989799 135.5549539 -46.3125 132.5 C-29.93764107 115.88910707 -3.19245622 98.96028948 20.68554688 98.62890625 C21.95495117 98.62697266 21.95495117 98.62697266 23.25 98.625 C24.09240234 98.60050781 24.93480469 98.57601563 25.80273438 98.55078125 C33.39455412 98.51571511 39.59926372 100.76797006 45.6875 105.3125 C50.09802491 109.82803741 51.46745338 113.90669718 51.9375 120.0625 C51.66776408 128.96378525 46.80637274 137.80410929 40.75 144.1875 C39.30312713 145.49498242 37.81919173 146.7619243 36.3125 148 C35.81862793 148.40782715 35.32475586 148.8156543 34.81591797 149.23583984 C26.28695004 156.22893021 17.40135921 162.75625263 8.3125 169 C7.53261719 169.54140625 6.75273437 170.0828125 5.94921875 170.640625 C-4.66919755 177.50581778 -20.70825501 186.2979245 -33.6875 185 C-35.82619375 183.80054248 -37.7488431 182.48623319 -39.6953125 180.99609375 C-41.69707612 179.79553493 -41.69707612 179.79553493 -44.23828125 180.09765625 C-49.88617009 182.1784574 -52.54791612 189.45430139 -55 194.625 C-57.02795619 199.45829558 -58.38983133 203.89300601 -56.6875 209 C-46.87893775 213.90428113 -27.4801828 207.04961301 -17.6875 204 C-2.35724717 198.7461413 12.27651072 192.0780414 26.3125 184 C27.5497583 183.29061279 27.5497583 183.29061279 28.81201172 182.56689453 C51.8217347 169.23817093 73.90765204 154.01614409 95.35644531 138.31640625 C100.46083058 134.58676187 105.63563036 130.97515257 110.875 127.4375 C111.58978516 126.94805908 112.30457031 126.45861816 113.04101562 125.9543457 C117.91201502 122.69808944 122.89172795 120.21690503 128.3125 118 C130.24865574 121.87231147 130.23477408 125.81982269 129.3125 130 C126.77345745 133.55006402 123.65285274 136.21549874 120.3125 139 C119.04102676 140.12427673 117.77015866 141.24923833 116.5 142.375 C115.8503125 142.931875 115.200625 143.48875 114.53125 144.0625 C112.32906128 145.98553803 110.18034957 147.95987838 108.0378418 149.94897461 C101.99225108 155.55499071 95.78248396 160.88530541 89.3125 166 C88.67070801 166.50901855 88.02891602 167.01803711 87.36767578 167.54248047 C65.34551549 184.96588056 42.59852707 200.89497581 18.3125 215 C17.44206055 215.50853516 16.57162109 216.01707031 15.67480469 216.54101562 C-6.30308326 229.28252415 -30.31561368 241.10111792 -56.125 241.5 C-57.03725342 241.51885254 -57.94950684 241.53770508 -58.8894043 241.55712891 C-67.18309717 241.47671809 -74.71864904 238.96885096 -80.6875 233 C-87.25164307 223.40625243 -87.84029296 214.40467422 -87.75 203.125 C-87.74548828 202.05507812 -87.74097656 200.98515625 -87.73632812 199.8828125 C-87.72459749 197.25515014 -87.70818228 194.62760462 -87.6875 192 C-96.4165144 198.36192312 -105.13214097 204.72602019 -113.59912109 211.43481445 C-130.30746952 224.66548215 -150.59977502 240.59286694 -172.6875 242 C-173.75097656 242.07927734 -173.75097656 242.07927734 -174.8359375 242.16015625 C-184.1452565 242.53579544 -192.20885521 239.77660739 -199.2421875 233.64453125 C-206.64362194 226.18786223 -208.07281286 215.90292006 -208.1875 205.8125 C-207.92357037 182.2897715 -197.48356519 164.24681673 -186.01269531 144.35913086 C-184.83710469 142.26632833 -183.73862619 140.15742716 -182.6875 138 C-183.68007812 138.75023437 -184.67265625 139.50046875 -185.6953125 140.2734375 C-187.06740577 141.30769318 -188.4398265 142.34151453 -189.8125 143.375 C-190.896521 144.19158081 -190.896521 144.19158081 -192.00244141 145.0246582 C-196.06269465 148.07095847 -200.1546088 151.05589029 -204.31420898 153.96484375 C-210.04556022 157.97302794 -215.39846755 162.19643745 -220.50390625 166.9921875 C-222.6875 169 -222.6875 169 -225.21484375 170.9609375 C-227.74948305 173.05111399 -229.64524874 175.18123083 -231.6875 177.75 C-232.85152344 179.20212891 -232.85152344 179.20212891 -234.0390625 180.68359375 C-234.4609082 181.2132373 -234.88275391 181.74288086 -235.31738281 182.28857422 C-236.79160841 184.13004276 -238.28073097 185.95863966 -239.7734375 187.78515625 C-246.39186079 195.88493081 -252.91607546 204.05125777 -259.35351562 212.29541016 C-260.68439565 213.9960332 -262.02086956 215.6920927 -263.359375 217.38671875 C-269.95578061 225.74200632 -276.44264426 234.17725489 -282.89257812 242.64599609 C-284.78448499 245.12719386 -286.68100407 247.6048183 -288.578125 250.08203125 C-295.08345913 258.58554507 -301.54373093 267.11588698 -307.875 275.75 C-313.87166177 283.92718901 -319.97268003 292.0169392 -326.17333984 300.04052734 C-327.15457441 301.3103417 -328.13417174 302.58142358 -329.11181641 303.85400391 C-352.07228033 333.72134026 -380.38793022 370.06576216 -419.6328125 377.6015625 C-430.21449721 378.98178225 -440.02172744 378.43420393 -449.0625 372.3125 C-453.83500479 368.36117518 -456.2243393 364.40616101 -457.0625 358.2421875 C-457.81293524 340.27864389 -446.89018451 325.01994283 -435.5 312.125 C-433.90833193 310.40501563 -432.30298792 308.69763137 -430.6875 307 C-430.20651855 306.49178711 -429.72553711 305.98357422 -429.22998047 305.45996094 C-421.62474063 297.4728982 -413.72496152 290.34407974 -404.6875 284 C-404.06423828 283.55946289 -403.44097656 283.11892578 -402.79882812 282.66503906 C-384.61357962 269.96780658 -365.41962285 260.13267656 -343.12695312 258.53515625 C-335.6132281 257.76733034 -331.82654612 255.43856108 -326.6875 250 C-325.58721541 248.97498364 -324.48361688 247.95349869 -323.375 246.9375 C-319.59945863 243.11070693 -316.36953114 238.86034238 -313.09106445 234.61157227 C-309.71018235 230.24620117 -306.18935835 226.0374337 -302.5625 221.875 C-293.7454751 212.04564186 -293.7454751 212.04564186 -286.6875 201 C-291.78952565 204.98392216 -296.7645319 209.0208401 -301.5 213.4375 C-311.12674483 222.18633414 -322.75403217 231.92177232 -336.38671875 231.328125 C-339.6291695 230.86570418 -341.98306022 229.82549685 -344.6875 228 C-347.79096383 223.34480426 -348.33052677 218.57168111 -347.33349609 213.03369141 C-346.532666 209.50234971 -345.58229505 206.02280834 -344.59765625 202.5390625 C-343.52145354 198.96338017 -343.52145354 198.96338017 -343.6875 195 C-351.49564665 200.18204341 -359.21530419 205.3631435 -366.3125 211.5 C-366.83714844 211.95358887 -367.36179687 212.40717773 -367.90234375 212.87451172 C-368.42828125 213.32971191 -368.95421875 213.78491211 -369.49609375 214.25390625 C-388.30579413 230.53253174 -412.51346807 250.99119005 -438.63671875 250.28515625 C-445.44486025 249.64879987 -451.00310307 247.09063189 -455.6875 242 C-463.74626418 232.04969214 -465.9416592 221.6656297 -464.6875 209 C-463.69383625 204.52086955 -462.3008109 200.2911875 -460.6875 196 C-460.32914063 195.03320312 -459.97078125 194.06640625 -459.6015625 193.0703125 C-458.19394358 189.41897019 -456.86618382 186.26802573 -454.6875 183 C-458.82392951 186.18359344 -462.94289708 189.38570514 -466.9921875 192.6796875 C-494.60867179 215.11571072 -528.12745532 242.09278358 -565.6875 239 C-572.72986633 237.57524381 -579.1252022 234.68006076 -583.6875 229 C-590.28933723 218.69991135 -592.78356569 207.16856601 -591.6875 195 C-590.73682739 191.56295286 -589.66000864 189.05000596 -586.6875 187 C-583 186.3125 -583 186.3125 -579.6875 186 C-579.44966797 186.88751953 -579.44966797 186.88751953 -579.20703125 187.79296875 C-577.17061997 194.68976497 -574.37329096 198.57908133 -568.125 202.3125 C-561.24295363 205.48783213 -553.53994499 204.95248473 -546.5 202.5 C-531.21567939 195.41940419 -523.18929073 178.9930732 -517.41015625 163.97167969 C-513.08768484 152.17834215 -511.70441932 140.43050064 -510.6875 128 C-519.59676588 130.5660328 -525.86719627 135.72582401 -532.87304688 141.51220703 C-535.77310181 143.89015843 -538.7317658 146.19193334 -541.6875 148.5 C-542.85575689 149.41760202 -544.02372537 150.33557135 -545.19140625 151.25390625 C-547.51030124 153.07603378 -549.83072515 154.89618794 -552.15234375 156.71484375 C-558.82679317 161.94616897 -565.46931227 167.21475979 -572.08398438 172.52148438 C-576.24293248 175.85466409 -580.42612516 179.15481917 -584.625 182.4375 C-589.61131614 186.33754169 -594.5358731 190.30666901 -599.4375 194.3125 C-655.69486378 240.17989804 -655.69486378 240.17989804 -671.2265625 239.96484375 C-675.06800929 239.32043167 -677.20462109 238.43335287 -680.125 235.8125 C-685.37182677 226.36821182 -683.75098773 216.26339102 -682.6875 205.9375 C-682.59210937 204.97650391 -682.49671875 204.01550781 -682.3984375 203.02539062 C-682.1653808 200.68317077 -681.92833651 198.34143045 -681.6875 196 C-682.43773438 196.68964844 -683.18796875 197.37929687 -683.9609375 198.08984375 C-686.66573264 200.57446563 -689.37411682 203.05513717 -692.08447266 205.53369141 C-693.49873942 206.82733841 -694.91158871 208.12253468 -696.32421875 209.41796875 C-702.27448577 214.83165774 -708.38818602 219.99684116 -714.6875 225 C-715.65816406 225.77730469 -716.62882812 226.55460937 -717.62890625 227.35546875 C-727.93082116 235.37403876 -738.26521061 241.76641263 -751.6875 242 C-757.76544031 240.84486747 -762.36521635 236.79977497 -765.9375 231.9375 C-770.09414328 224.96027735 -768.95822001 218.22407117 -767.125 210.6875 C-766.980625 210.130625 -766.83625 209.57375 -766.6875 209 C-767.12578125 209.32871094 -767.5640625 209.65742187 -768.015625 209.99609375 C-768.64984375 210.47175781 -769.2840625 210.94742187 -769.9375 211.4375 C-770.67613281 211.99179688 -771.41476562 212.54609375 -772.17578125 213.1171875 C-773.88026724 214.39488928 -775.58604095 215.67087465 -777.29296875 216.9453125 C-778.22753906 217.64398437 -779.16210938 218.34265625 -780.125 219.0625 C-781.65447266 220.20525391 -781.65447266 220.20525391 -783.21484375 221.37109375 C-785.77091894 223.29393734 -788.29756632 225.25131457 -790.81640625 227.22265625 C-806.80527878 239.70142522 -824.34505188 251.83848804 -845.6875 250 C-852.72243556 248.76580078 -858.02700219 245.33590012 -862.45703125 239.78125 C-866.32620443 234.132822 -868.91009336 228.86709197 -869.6875 222 C-869.76484375 221.360625 -869.8421875 220.72125 -869.921875 220.0625 C-870.46561972 211.36258452 -867.54460302 203.07678579 -865.14648438 194.8125 C-864.605672 192.98848512 -864.605672 192.98848512 -864.6875 191 C-865.74324219 191.90878906 -865.74324219 191.90878906 -866.8203125 192.8359375 C-873.86932184 198.81747284 -881.13196291 204.28999903 -888.69824219 209.59472656 C-891.67517185 211.69772204 -894.62511498 213.83747554 -897.57617188 215.9765625 C-899.90428349 217.66343246 -902.23692387 219.34387756 -904.5703125 221.0234375 C-906.89365061 222.69728514 -909.20042778 224.38433864 -911.4921875 226.1015625 C-920.42657181 232.68954285 -932.22089291 240.5639315 -943.6875 240 C-946.56703304 238.83593345 -948.02473903 237.93951512 -949.80419922 235.41699219 C-951.1156619 231.82841272 -950.93214146 228.28455017 -950.8828125 224.515625 C-950.8799826 223.70003113 -950.87715271 222.88443726 -950.87423706 222.04412842 C-950.86306558 219.44593472 -950.83796675 216.84808905 -950.8125 214.25 C-950.80246627 212.48568207 -950.79334111 210.72135872 -950.78515625 208.95703125 C-950.76313619 204.63788727 -950.72862733 200.31900259 -950.6875 196 C-954.9824633 199.66359015 -959.13012376 203.36145873 -962.99633789 207.47607422 C-977.14695261 222.43933647 -998.00272528 240.07403091 -1019.2265625 242.26171875 C-1024.8259026 242.07892242 -1028.10348398 239.67785871 -1032.02734375 235.81640625 C-1036.79003377 230.60546306 -1037.6569176 225.94220508 -1037.6875 219 C-1036.58667871 200.88107662 -1022.14940296 184.26085645 -1010.20703125 171.66796875 C-1008.13148799 169.47014542 -1006.1442295 167.23980942 -1004.1875 164.9375 C-997.99908276 157.81414203 -991.20592476 151.10101941 -984.015625 144.9921875 C-982.12596962 143.37520051 -980.27059592 141.73332196 -978.421875 140.0703125 C-957.70934984 121.56619972 -924.34861527 96.23328677 -894.91015625 97.609375 C-891.12528723 98.27455409 -887.70828518 99.60114118 -884.6875 102 C-883.46875 104.140625 -883.46875 104.140625 -882.6875 106 C-882.15382813 105.77441406 -881.62015625 105.54882812 -881.0703125 105.31640625 C-877.14503944 104.00571819 -874.79346337 103.46290859 -870.96875 105.3203125 C-861.80739796 111.76020408 -861.80739796 111.76020408 -859.8125 115.75 C-859.36295411 123.84182603 -866.81999657 130.33954488 -871.6875 136 C-872.66859893 137.15571533 -873.64904621 138.31198411 -874.62890625 139.46875 C-879.13821288 144.77594615 -883.68877858 150.03510996 -888.375 155.1875 C-893.00851332 160.30523634 -897.39686915 165.5923256 -901.6875 171 C-902.47640625 171.99386719 -903.2653125 172.98773437 -904.078125 174.01171875 C-912.27725947 183.99163278 -912.27725947 183.99163278 -915.6875 196 C-882.50748698 179.37086612 -841.74256487 156.95435332 -817.6875 128 C-809.7871837 119.0615827 -801.60427808 110.61965241 -792.1875 103.25 C-789.53812895 100.86556605 -788.86224548 99.28493645 -787.6875 96 C-788.780625 96.0721875 -789.87375 96.144375 -791 96.21875 C-852.33081411 100.01150575 -852.33081411 100.01150575 -874.8828125 84.8046875 C-877.4449937 83.15604166 -879.82625976 82.01663115 -882.6875 81 C-882.73004356 79.00045254 -882.72830783 76.99958364 -882.6875 75 C-880.97424147 73.28674147 -878.64548839 73.56243341 -876.296875 73.30859375 C-874.472771 73.10447876 -874.472771 73.10447876 -872.61181641 72.89624023 C-871.93838196 72.82235077 -871.26494751 72.7484613 -870.57110596 72.67233276 C-858.06486162 71.29584808 -845.58625077 69.74249158 -833.1171875 68.0625 C-831.19486298 67.80397247 -831.19486298 67.80397247 -829.23370361 67.54022217 C-827.93455017 67.36549377 -826.63539673 67.19076538 -825.296875 67.01074219 C-822.63544308 66.652798 -819.97398322 66.29506258 -817.3125 65.9375 C-816.65058655 65.8484993 -815.9886731 65.7594986 -815.30670166 65.6678009 C-797.29572097 63.24912945 -779.32282739 61.03036397 -761.17822266 59.92358398 C-749.29418934 59.30317181 -749.29418934 59.30317181 -739.11328125 53.78515625 C-738.41589844 52.88667969 -737.71851562 51.98820312 -737 51.0625 C-736.60337158 50.56105469 -736.20674316 50.05960938 -735.7980957 49.54296875 C-731.12878351 43.5210138 -726.84741808 37.17688593 -722.59692383 30.85571289 C-717.91395098 23.97732494 -714.15821739 19.69414348 -705.6875 18 C-698.17339484 17.35013145 -691.40985959 18.46816428 -684.6875 22 C-685.60779941 29.75680932 -688.91269125 34.67282522 -693.49609375 40.7890625 C-696.74118012 45.54389493 -698.82353249 50.29781441 -699.6875 56 C-697.41673859 56.0275801 -695.14587359 56.04665143 -692.875 56.0625 C-690.97814453 56.07990234 -690.97814453 56.07990234 -689.04296875 56.09765625 C-685.85615212 56.08209635 -682.77697115 55.79137443 -679.61328125 55.41796875 C-672.55824086 54.73494774 -665.71221614 55.49835537 -658.6875 56.25 C-657.3984375 56.37246094 -656.109375 56.49492188 -654.78125 56.62109375 C-644.08497305 57.71898397 -634.30174791 60.19662245 -624.25 63.9375 C-623.2300293 64.29618164 -623.2300293 64.29618164 -622.18945312 64.66210938 C-618.18499409 66.14567729 -615.33842616 67.61234002 -612.6875 71 C-611.9375 74.25 -611.9375 74.25 -611.6875 77 C-618.9796939 79.72515065 -626.02540284 80.99217758 -633.734375 81.96875 C-635.67253082 82.22054016 -635.67253082 82.22054016 -637.64984131 82.47741699 C-648.51745732 83.85378123 -659.41433974 84.85314837 -670.328125 85.78125 C-671.16759171 85.85267212 -672.00705841 85.92409424 -672.8719635 85.99768066 C-680.66523003 86.65761934 -688.45973711 87.30194886 -696.25585938 87.92724609 C-700.58398742 88.27516997 -704.91061377 88.63840365 -709.23668671 89.01097107 C-710.8579291 89.14754858 -712.47966708 89.27838692 -714.10187531 89.40296936 C-734.53086678 90.97413692 -746.62583618 99.73589104 -761.6875 113 C-762.49840088 113.71397949 -762.49840088 113.71397949 -763.32568359 114.44238281 C-774.64019491 124.48082142 -784.85008445 135.52301519 -794.6875 147 C-795.57523882 148.02238036 -796.46328896 149.04449044 -797.3515625 150.06640625 C-823.71750639 177.35403944 -823.71750639 177.35403944 -837.0625 210.8125 C-836.93875 211.864375 -836.815 212.91625 -836.6875 214 C-830.46839528 215.96392781 -826.21398538 213.83232376 -820.6875 211 C-814.55919685 207.54639219 -808.62699497 203.76548824 -802.6875 200 C-801.80916504 199.44425293 -800.93083008 198.88850586 -800.02587891 198.31591797 C-795.38031589 195.37342285 -790.74218872 192.41955455 -786.109375 189.45703125 C-782.75461114 187.31331587 -779.39248591 185.1829483 -776.015625 183.07421875 C-749.17932636 166.30587923 -723.04328832 148.37512772 -697.36328125 129.890625 C-649.58928102 95.61091239 -649.58928102 95.61091239 -622.6875 98 C-619.05430474 99.17258643 -616.40586263 100.69215043 -614.51171875 104.140625 C-614.23972656 104.75421875 -613.96773437 105.3678125 -613.6875 106 C-613.16542969 105.7628125 -612.64335937 105.525625 -612.10546875 105.28125 C-609.44922474 104.35086681 -607.51740413 103.92296823 -604.6875 104 C-599.46432562 106.70755102 -594.96126295 110.08935557 -591.6875 115 C-591.25209252 118.98351523 -591.22697267 121.23022968 -593.3046875 124.703125 C-594.04976562 125.54359375 -594.79484375 126.3840625 -595.5625 127.25 C-596.38492188 128.19359375 -597.20734375 129.1371875 -598.0546875 130.109375 C-598.92351563 131.06328125 -599.79234375 132.0171875 -600.6875 133 C-601.92886719 134.36898438 -601.92886719 134.36898438 -603.1953125 135.765625 C-604.86403805 137.5965151 -606.53726355 139.42331341 -608.21484375 141.24609375 C-611.43969652 144.83775442 -614.45678141 148.57791049 -617.484375 152.3359375 C-619.58033974 154.87041968 -621.76102513 157.27939394 -624 159.6875 C-633.20505432 169.82920897 -644.4853131 182.4063152 -647.6875 196 C-641.37626717 193.84070335 -635.84870885 191.03547237 -630.125 187.625 C-629.19534424 187.07336182 -628.26568848 186.52172363 -627.30786133 185.95336914 C-613.96233375 177.90147011 -601.16463038 168.99408831 -588.34350586 160.14111328 C-586.04165605 158.55496467 -583.73125239 156.98141099 -581.421875 155.40625 C-572.89466197 149.54396557 -565.00436248 143.20053653 -557.24707031 136.35791016 C-554.93939739 134.34863076 -552.56611982 132.42439359 -550.1875 130.5 C-545.34166965 126.56632595 -540.60335016 122.51939858 -535.88110352 118.43920898 C-532.35446395 115.40016777 -528.77283105 112.45633977 -525.125 109.5625 C-520.11918022 105.52076403 -515.6308846 101.07139665 -511.18920898 96.42797852 C-507.2553194 92.36450198 -504.13715002 89.31398516 -498.3046875 88.56640625 C-487.77823806 88.55541831 -479.70233761 90.40181793 -470.6875 96 C-471.01828974 118.35682368 -473.13260386 139.85148316 -480.6875 161 C-481.23916482 162.58432803 -481.78990577 164.16897799 -482.33984375 165.75390625 C-483.76618951 169.84434614 -485.21963766 173.924286 -486.6875 178 C-456.86192951 163.04567496 -430.57490614 145.22586077 -407.1809082 121.45727539 C-403.09167087 117.31895085 -398.92782048 113.35556563 -394.50219727 109.57763672 C-389.75436847 105.45003418 -385.81021808 101.49523362 -382.6875 96 C-384.30978516 96.10828125 -384.30978516 96.10828125 -385.96484375 96.21875 C-450.01941347 100.207548 -450.01941347 100.207548 -468.4921875 85.6171875 C-471.69426775 83.2583597 -474.91320234 82.18820482 -478.6875 81 C-478.6875 79.02 -478.6875 77.04 -478.6875 75 C-476.0653432 73.6889216 -473.770267 73.58945384 -470.84765625 73.2734375 C-468.95043823 73.06158813 -468.95043823 73.06158813 -467.01489258 72.84545898 C-466.3245694 72.76947479 -465.63424622 72.6934906 -464.92300415 72.61520386 C-450.01749645 70.96754918 -435.16853745 68.99021763 -420.31869507 66.90344238 C-376.60724095 60.7663859 -376.60724095 60.7663859 -356.85351562 59.81542969 C-344.05211461 59.51569064 -344.05211461 59.51569064 -333.60546875 53.0234375 C-332.67323192 51.82413371 -331.76376817 50.60686291 -330.875 49.375 C-330.3792749 48.72490967 -329.8835498 48.07481934 -329.37280273 47.4050293 C-325.00288641 41.61397963 -320.83700939 35.65273342 -316.78393555 29.63623047 C-312.42485787 23.26311498 -308.49883003 19.56226601 -300.6875 18 C-294.00220647 17.29038784 -287.89876706 18.44034741 -281.6875 21 C-281.0275 21.66 -280.3675 22.32 -279.6875 23 C-281.40434827 29.75293653 -284.35949054 34.8329436 -288.46264648 40.39331055 C-292.20847727 45.50354274 -293.81467374 49.74474517 -294.6875 56 C-294.06222412 55.95399658 -293.43694824 55.90799316 -292.79272461 55.8605957 C-269.48872803 54.26714205 -243.62174806 53.87191635 -221.6875 63 C-220.06134766 63.65742187 -220.06134766 63.65742187 -218.40234375 64.328125 C-210.2505104 67.82026522 -210.2505104 67.82026522 -207.6875 71 C-207 74.1875 -207 74.1875 -206.6875 77 C-214.68235242 79.81251005 -222.60349715 80.92774555 -231 81.8125 C-232.47010139 81.97473286 -233.94015148 82.13743108 -235.41015625 82.30053711 C-245.22402243 83.37436084 -255.04894076 84.33639432 -264.87517357 85.28930092 C-266.89511215 85.48518897 -268.91500334 85.68156052 -270.93489075 85.87797546 C-281.90030252 86.94290687 -281.90030252 86.94290687 -287.17764282 87.43789673 C-305.49297459 89.1333945 -305.49297459 89.1333945 -323.7265625 91.52734375 C-324.47885132 91.63812759 -325.23114014 91.74891144 -326.00622559 91.86305237 C-332.16199805 92.8658554 -336.09039475 94.90622744 -340.6875 99 C-341.64140625 99.7734375 -342.5953125 100.546875 -343.578125 101.34375 C-359.97590321 114.70648978 -376.2210852 129.6594583 -389.6875 146 C-390.37972656 146.83789062 -391.07195313 147.67578125 -391.78515625 148.5390625 C-393.3255346 150.41499497 -394.86055413 152.29533848 -396.390625 154.1796875 C-397.82746706 155.94397315 -399.27389668 157.70054259 -400.734375 159.4453125 C-422.2371775 183.06816111 -422.2371775 183.06816111 -432.6875 212 C-432.3575 212.66 -432.0275 213.32 -431.6875 214 C-417.28878089 216.02087286 -402.61906374 202.95465322 -391.10498047 195.55126953 C-387.24908113 193.07698308 -383.37435843 190.63273806 -379.5 188.1875 C-378.7265625 187.69765625 -377.953125 187.2078125 -377.15625 186.703125 C-372.77559261 183.93227016 -368.37963763 181.18882812 -363.96484375 178.47265625 C-350.75453625 170.32680345 -337.92173189 161.78331655 -325.26660156 152.80029297 C-322.95216003 151.18474092 -320.61279654 149.62901148 -318.2421875 148.09765625 C-308.07560952 141.43424908 -299.69642999 133.42275484 -291.34741211 124.65185547 C-284.41213735 117.43245755 -278.50988467 111.42185434 -268.15234375 110.86328125 C-263.27531492 111.1337979 -259.35001736 112.53899989 -255.625 115.8125 C-254.20799111 119.11885407 -254.50323147 120.5787798 -255.6875 124 C-260.12885445 130.55256167 -266.60632142 135.94353117 -272.2043457 141.50292969 C-276.57122518 145.84863444 -280.74942858 150.25955806 -284.6875 155 C-285.86892578 156.36511719 -285.86892578 156.36511719 -287.07421875 157.7578125 C-295.65803546 167.73316217 -302.09163927 177.20230934 -305.6875 190 C-296.29472282 187.38086021 -289.3853011 181.51213029 -281.83056641 175.64990234 C-247.52754612 149.24071904 -209.90167135 127.92864713 -172.37744141 106.54223633 C-165.93478575 102.86812479 -159.52108692 99.15230628 -153.14404297 95.36523438 C-150.6875 94 -150.6875 94 -147.6875 93 C-145.97135151 91.3446479 -145.97135151 91.3446479 -144.3125 89.3125 C-143.38050781 88.22195313 -143.38050781 88.22195313 -142.4296875 87.109375 C-141.06374692 85.4555456 -139.74181362 83.76535389 -138.4375 82.0625 C-135.40670016 78.39620987 -131.62141817 75.64516955 -127.91796875 72.69140625 C-123.51710328 69.1006845 -119.43586501 65.15785455 -115.34228516 61.22460938 C-107.0917209 53.3738124 -98.038384 46.66297119 -88.6875 40.1875 C-87.68783203 39.49390381 -86.68816406 38.80030762 -85.65820312 38.08569336 C-77.51549456 32.4814184 -69.20839236 27.23413489 -60.70166016 22.20410156 C-58.77787168 21.05402583 -56.87691879 19.87418163 -54.98046875 18.6796875 C-47.84160569 14.21452342 -40.51804146 10.29360937 -32.9375 6.625 C-32.08631592 6.20790771 -31.23513184 5.79081543 -30.3581543 5.36108398 C-21.28796739 1.06974688 -9.97625142 -3.71209355 0 0 Z M-31.6875 31 C-48.11317054 40.83978362 -62.16019787 53.24131107 -75.99121094 66.40087891 C-78.50005519 68.76600986 -81.0642321 71.06616749 -83.625 73.375 C-90.6409505 79.78086785 -97.30555569 86.5350588 -103.98876953 93.28466797 C-107.05769177 96.38358254 -110.13930403 99.46675483 -113.265625 102.5078125 C-120.90066714 109.98658185 -128.33670437 117.66955012 -133.6875 127 C-133.0275 127.33 -132.3675 127.66 -131.6875 128 C-123.76000903 125.17004899 -117.35287844 118.74662947 -111.14453125 113.28222656 C-109.93664534 112.21925458 -108.71949321 111.16682273 -107.5 110.1171875 C-98.47420873 102.33244253 -89.7746319 94.23397798 -81.453125 85.703125 C-79.43544146 83.73103883 -77.43116466 81.90859831 -75.2890625 80.0859375 C-69.19434157 74.79964145 -63.52641905 69.06236195 -57.81591797 63.36865234 C-55.83099167 61.39340153 -53.83562108 59.42912175 -51.83984375 57.46484375 C-44.07962631 49.7669341 -37.06994366 41.8782031 -30.6875 33 C-31.1825 32.01 -31.1825 32.01 -31.6875 31 Z M23.3125 119 C8.80035596 121.60817335 -2.96606806 133.51477119 -13.6875 143 C-14.22713379 143.47646973 -14.76676758 143.95293945 -15.32275391 144.44384766 C-21.15990321 149.62525506 -26.92502817 154.78232845 -31.6875 161 C-31.6875 161.66 -31.6875 162.32 -31.6875 163 C-26.79987651 162.38904706 -22.96268763 160.29803926 -18.6875 158 C-17.56299438 157.39877319 -17.56299438 157.39877319 -16.41577148 156.78540039 C-2.98828055 149.46949645 18.15128424 137.78691783 24.3125 123 C23.91055402 120.89133782 23.91055402 120.89133782 23.3125 119 Z M-974.6875 177 C-984.75947453 187.31822786 -984.75947453 187.31822786 -989.6875 200 C-984.93962062 199.50209505 -981.79190559 197.27399341 -978.0625 194.5 C-977.14053833 193.82723022 -977.14053833 193.82723022 -976.19995117 193.14086914 C-970.52690519 188.9634778 -965.08894393 184.52120862 -959.6875 180 C-957.89720698 178.53998066 -956.105521 177.08166786 -954.3125 175.625 C-949.67199967 171.83063079 -945.09127866 167.97066546 -940.52612305 164.08642578 C-937.09746727 161.17458383 -933.62798327 158.32254767 -930.125 155.5 C-925.64733613 151.86067959 -921.40603797 148.02750796 -917.18310547 144.10131836 C-911.34711939 138.70526415 -905.21159196 133.66384205 -898.87109375 128.87109375 C-898.15050781 128.25363281 -897.42992188 127.63617187 -896.6875 127 C-896.6875 126.34 -896.6875 125.68 -896.6875 125 C-924.37703463 123.43075764 -957.42460351 158.52175591 -974.6875 177 Z M-687.6875 160 C-689.01687633 161.15042183 -690.35007608 162.29644388 -691.6875 163.4375 C-702.56838483 172.96101086 -713.83617081 184.10338034 -720.6875 197 C-720.6875 197.99 -720.6875 198.98 -720.6875 200 C-709.35541835 195.77824409 -699.97937724 187.5335138 -690.6875 180 C-689.71425781 179.21109375 -688.74101562 178.4221875 -687.73828125 177.609375 C-685.04805112 175.41420861 -682.36755414 173.20757052 -679.6875 171 C-677.89592294 169.54155659 -676.10425498 168.08322483 -674.3125 166.625 C-665.93969475 159.76477834 -657.62715107 152.86052667 -649.6875 145.5 C-645.41347972 141.54468163 -641.06954642 137.70018432 -636.625 133.9375 C-635.80225586 133.23947266 -635.80225586 133.23947266 -634.96289062 132.52734375 C-632.60034137 130.54031859 -630.25973147 128.71482098 -627.6875 127 C-627.6875 126.34 -627.6875 125.68 -627.6875 125 C-648.87956299 123.79898729 -673.40736854 146.70292107 -687.6875 160 Z M-345.6875 268 C-366.7495104 275.42850989 -382.61691795 289.55111409 -398.17236328 305.16918945 C-399.81031017 306.81030593 -401.4612146 308.43756595 -403.11328125 310.06445312 C-424.65462029 330.77596984 -424.65462029 330.77596984 -435.81640625 356.79296875 C-435.75259766 357.88544922 -435.75259766 357.88544922 -435.6875 359 C-417.46720502 353.48866924 -403.4512859 336.82816499 -390.375 323.8125 C-389.52671631 322.96896973 -388.67843262 322.12543945 -387.80444336 321.25634766 C-383.44134752 316.88165584 -379.22723481 312.43997333 -375.20043945 307.75366211 C-373.17321223 305.40388428 -371.05378918 303.14453771 -368.9375 300.875 C-364.11191252 295.58738818 -359.68846951 290.05090416 -355.3203125 284.3828125 C-352.31519927 280.48696871 -349.14763774 276.72988574 -345.953125 272.98828125 C-345.53546875 272.33214844 -345.1178125 271.67601562 -344.6875 271 C-345.1825 269.515 -345.1825 269.515 -345.6875 268 Z " fill="#548A54" transform="translate(3035.6875,1101)"/>
<path d="M0 0 C12.26024 6.73392147 21.36898767 17.2470673 30 28 C30.43344727 28.5367334 30.86689453 29.0734668 31.31347656 29.62646484 C51.53740566 54.81054638 51.53740566 54.81054638 51.328125 66.65234375 C51 69 51 69 49.125 71.5625 C45.22314455 74.20199045 42.75233134 74.46744243 38 74 C31.5816237 70.79081185 28.40239469 65.58822118 24.51171875 59.734375 C8.00988472 34.14644268 8.00988472 34.14644268 -17 19 C-20.47779861 29.42947499 -20.35337372 39.41083049 -20.1875 50.25 C-20.17241737 51.97785284 -20.15873533 53.70571851 -20.14648438 55.43359375 C-20.11378169 59.62271844 -20.06220022 63.81121373 -20 68 C-18.98770325 68.12486282 -17.97540649 68.24972565 -16.93243408 68.37837219 C-13.17112885 68.97294845 -9.72385073 69.84842096 -6.08105469 70.94604492 C-5.42780212 71.14137817 -4.77454956 71.33671143 -4.10150146 71.53796387 C-1.95680118 72.18061554 0.18565151 72.83043573 2.328125 73.48046875 C3.8418992 73.93589488 5.35579728 74.39090943 6.86981201 74.84553528 C10.04467099 75.79997803 13.21852344 76.75767116 16.39160156 77.71801758 C20.40096016 78.93145557 24.41190973 80.13951849 28.42352962 81.34545708 C42.40068739 85.54760736 56.37395258 89.75578504 70.27656555 94.19975281 C74.9991972 95.70376917 79.74199305 97.0768097 84.52978516 98.35620117 C105.695617 104.01573256 105.695617 104.01573256 112 111 C110.86349426 114.40951722 109.74186875 115.37636276 107.0625 117.6875 C105.99708984 118.62142578 105.99708984 118.62142578 104.91015625 119.57421875 C103 121 103 121 101 121 C100.76410156 121.5671875 100.52820312 122.134375 100.28515625 122.71875 C98.70832569 125.51774407 96.77919924 127.30122137 94.4375 129.5 C50.33975478 172.90179802 28.33040837 248.13380635 21 308 C20.9064624 308.71244873 20.8129248 309.42489746 20.71655273 310.15893555 C19.86118248 317.43679303 19.81386735 324.71221711 19.81469727 332.02954102 C19.8125215 334.16638454 19.79433041 336.30270107 19.77539062 338.43945312 C19.6765932 362.32966993 23.36164096 385.78129334 40.31640625 403.6015625 C42.87359532 405.88702696 44.75380282 407.0020732 48 408 C47.34 408.33 46.68 408.66 46 409 C46 409.66 46 410.32 46 411 C44.35 411.33 42.7 411.66 41 412 C40.67 411.34 40.34 410.68 40 410 C37.52527785 409.11521037 35.08971428 408.35021239 32.56542969 407.63330078 C31.78637268 407.40534821 31.00731567 407.17739563 30.20465088 406.9425354 C27.61248608 406.18604727 25.01724158 405.44073472 22.421875 404.6953125 C20.61577962 404.17038105 18.80989448 403.64472574 17.00421143 403.11837769 C12.23044791 401.72882361 7.45404917 400.34855348 2.67700195 398.97033691 C-3.07833193 397.30815962 -8.83065801 395.63561226 -14.58332443 393.96423149 C-19.07161009 392.66036997 -23.56033918 391.35811693 -28.05059814 390.06106567 C-53.73507029 382.63659051 -53.73507029 382.63659051 -60.88671875 379.49609375 C-67.00516211 376.87532567 -73.21330226 375.22446164 -79.65942383 373.60690308 C-99.99277225 368.46563703 -119.98424979 362.17640862 -140 355.9375 C-141.13870733 355.58269499 -141.13870733 355.58269499 -142.30041885 355.2207222 C-148.96414869 353.1439963 -155.62704708 351.06462799 -162.28726196 348.97665405 C-169.29549989 346.77983273 -176.30637733 344.592689 -183.32641602 342.43383789 C-184.65686786 342.02395525 -185.98731235 341.61404871 -187.31774902 341.20411682 C-189.772681 340.44862234 -192.22835544 339.69553416 -194.68493652 338.94541931 C-219.70499264 331.23795116 -238.27990801 319.46879694 -250.99511719 295.95556641 C-272.74849773 253.62209261 -267.43116758 199.21750802 -253.72119141 155.22485352 C-246.64453874 133.24709513 -237.74905361 111.68060361 -224 93 C-223.38922607 92.1661377 -223.38922607 92.1661377 -222.76611328 91.31542969 C-220.33568995 88.02409084 -217.83837824 84.79415195 -215.27978516 81.6015625 C-214.41845033 80.52366161 -213.5640533 79.44018407 -212.71630859 78.3515625 C-196.59326778 57.68690546 -170.48841024 39.79643055 -144.3671875 35.38671875 C-123.77687433 33.021938 -103.70362373 40.81688146 -84.26171875 46.79296875 C-78.84031689 48.45687886 -73.40109106 50.01842231 -67.93139648 51.51464844 C-49.18754146 56.65500092 -49.18754146 56.65500092 -43 63 C-43.02094727 62.02353516 -43.04189453 61.04707031 -43.06347656 60.04101562 C-43.13717356 56.33593054 -43.18225828 52.63090641 -43.21972656 48.92529297 C-43.23955268 47.33696519 -43.26662221 45.74870741 -43.30175781 44.16064453 C-43.5924268 30.66163496 -43.21006762 13.84895184 -34 3 C-23.29934227 -5.87003375 -12.33898402 -5.90285227 0 0 Z M-38 95 C-37 99 -37 99 -37 99 Z M-37 101 C-36.51351843 111.71756324 -34.9722634 121.98657785 -32.9375 132.5 C-32.78316498 133.30501953 -32.62882996 134.11003906 -32.46981812 134.93945312 C-25.4818904 171.16569696 -16.49469799 214.68707725 4 246 C5.32899629 243.34200743 4.71783635 242.53287132 3.78930664 239.74658203 C3.49027939 238.83327118 3.19125214 237.91996033 2.88316345 236.97897339 C2.54144608 235.9572403 2.1997287 234.9355072 1.84765625 233.8828125 C1.09767237 231.58934043 0.34924469 229.2953591 -0.39794922 227.00097656 C-0.60225965 226.37598959 -0.80657007 225.75100262 -1.01707172 225.10707664 C-5.16347522 212.40329104 -9.10496945 199.63263757 -13.07238197 186.87209702 C-14.45153761 182.43665682 -15.83526949 178.00276484 -17.23022461 173.57226562 C-24.74935372 149.67846973 -31.98948009 125.78161043 -36 101 C-36.33 101 -36.66 101 -37 101 Z " fill="#011E1E" transform="translate(1610,704)"/>
<path d="M0 0 C12.71489122 9.66331732 17.43321145 25.13869439 19.73754883 40.32714844 C27.55652442 101.04758856 5.51867372 179.89505549 -28.82568359 230.22167969 C-31.16038242 233.22356258 -32.74269803 234.48016069 -36.4375 235.1875 C-34.26490833 238.7763692 -32.09098739 242.3644292 -29.91589355 245.95178223 C-29.1372427 247.2362178 -28.35884187 248.52080498 -27.58068848 249.80554199 C-23.19008297 257.05311382 -18.77039691 264.27755292 -14.25292969 271.44702148 C-6.74212685 283.39613249 -0.00880274 295.70125935 6.5625 308.1875 C7.13645508 309.27369629 7.71041016 310.35989258 8.30175781 311.47900391 C10.08357512 314.85717604 11.85623758 318.23997588 13.625 321.625 C14.1418335 322.61000488 14.65866699 323.59500977 15.19116211 324.60986328 C16.6475022 327.41815272 18.06787305 330.24248418 19.48171997 333.07232666 C20.69493359 335.44668317 21.96454055 337.78748873 23.23022461 340.13427734 C33.08208641 358.93186444 38.5087754 378.81425858 44.22052002 399.16119385 C46.2906243 406.53437004 48.3809557 413.90143866 50.50300789 421.25983429 C51.23111388 423.80697087 51.93854034 426.35922643 52.64463806 428.91253662 C53.08959516 430.46896387 53.53539552 432.02515037 53.98217773 433.58105469 C54.16976654 434.28121201 54.35735535 434.98136932 54.55062866 435.70274353 C55.92359323 440.38006644 57.89605707 443.01352506 61.5625 446.1875 C63.62318192 445.77176806 63.62318192 445.77176806 65.5625 444.1875 C66.21505445 441.4553094 66.62577034 438.96093883 66.9375 436.1875 C71.33694625 405.03127925 89.44252801 375.89959296 110.5625 353.1875 C111.79671351 351.77522802 113.02663169 350.35917687 114.25 348.9375 C115.35338921 347.68681368 116.45759806 346.43685013 117.5625 345.1875 C118.26890625 344.37667969 118.9753125 343.56585937 119.703125 342.73046875 C123.69874492 338.19802234 127.72951651 333.97722523 132.3515625 330.0859375 C134.53599946 328.21025488 136.63791491 326.26067338 138.73681641 324.2902832 C184.39982507 281.5815931 252.9529034 248.87430148 315.8125 248.6875 C316.48620636 248.68282715 317.15991272 248.6781543 317.85403442 248.67333984 C337.85916774 248.619397 358.211549 252.48718889 373.5625 266.1875 C380.13747436 273.38210545 380.16330342 282.39767192 379.93359375 291.5703125 C378.80927364 311.07186487 361.94853685 326.73813432 348.23730469 339.18579102 C322.35012834 362.02814234 284.78640426 383.88109026 249.1875 382.0625 C238.8188796 380.84183698 229.13351966 376.09298451 222 368.4375 C220.07030897 364.07472029 219.0737902 359.81590583 220.5625 355.1875 C225.38373532 349.35938485 232.47139815 346.5605412 239.1875 343.5 C241.42063704 342.45473677 243.65238623 341.40650392 245.8828125 340.35546875 C247.55778809 339.5672876 247.55778809 339.5672876 249.26660156 338.76318359 C254.25164372 336.37996418 259.16531779 333.87059 264.0625 331.3125 C264.89088379 330.88493408 265.71926758 330.45736816 266.57275391 330.0168457 C271.46534109 327.44591926 276.02856027 324.61706264 280.53710938 321.41748047 C282.56707306 320.18472287 284.24200223 319.62568603 286.5625 319.1875 C287.05405349 325.45480706 287.05405349 325.45480706 284.90625 328.65625 C282.40096456 331.36195828 279.82739292 333.38239664 276.8125 335.5 C275.82765625 336.19738281 274.8428125 336.89476562 273.828125 337.61328125 C273.08046875 338.13277344 272.3328125 338.65226562 271.5625 339.1875 C275.78180725 338.58025479 278.93835443 336.15994277 282.375 333.8125 C283.03516113 333.36624268 283.69532227 332.91998535 284.37548828 332.46020508 C291.57635151 327.55627201 298.59696874 322.41852459 305.5625 317.1875 C306.25666016 316.66752441 306.95082031 316.14754883 307.66601562 315.61181641 C331.71734419 298.99623501 331.71734419 298.99623501 348.5625 276.1875 C339.20855532 269.59087484 323.69802352 273.41312901 313.0234375 275.15234375 C271.27901126 282.64550547 230.77058168 304.32400882 199.86328125 333.1015625 C197.44806134 335.29125254 194.93566643 337.29545968 192.375 339.3125 C182.89508251 346.98543464 174.13959447 355.86964559 166.28125 365.19140625 C164.48350097 367.2792466 162.61112941 369.28779982 160.72729492 371.29785156 C154.71676735 377.73259065 149.23783883 384.48243424 143.88574219 391.47021484 C142.62798594 393.10251327 141.35298786 394.71927806 140.0703125 396.33203125 C122.14433815 419.09744596 95.94164174 453.6613361 97.5625 484.1875 C98.5525 485.6725 98.5525 485.6725 99.5625 487.1875 C126.75634011 492.56354747 165.97209575 469.64520184 189.5625 458.1875 C190.28115234 457.84332031 190.99980469 457.49914063 191.74023438 457.14453125 C196.39481721 454.91372006 200.98388429 452.5698251 205.5625 450.1875 C206.62952148 449.63610352 207.69654297 449.08470703 208.79589844 448.51660156 C228.37572328 438.38082522 247.35911095 427.67451172 265.22949219 414.68774414 C267.60367855 413.16102008 269.91392361 412.14627527 272.5625 411.1875 C268.90022358 429.16594786 255.80232979 444.08575748 243.97314453 457.56640625 C242.48284067 459.27904343 241.01870675 461.0115691 239.55859375 462.75 C231.17193641 472.71426573 222.48278404 481.82002582 212.28125 489.97265625 C209.62748647 492.13455844 207.09000859 494.37994864 204.5625 496.6875 C200.38153248 500.50461749 196.05021044 504.06816983 191.59375 507.55859375 C189.71754754 509.08838992 188.11404922 510.67237794 186.46459961 512.45581055 C180.05695528 519.33549442 173.64919569 523.26525799 165.125 527.125 C163.84476291 527.72062789 162.56498637 528.31724656 161.28564453 528.91479492 C114.76294651 550.46987668 56.9595342 574.26435127 5.58789062 555.98095703 C-5.01684004 551.8265001 -13.4299583 545.16900092 -21.4375 537.1875 C-22.27925781 536.36636719 -23.12101562 535.54523437 -23.98828125 534.69921875 C-58.30776403 499.50395969 -64.27165987 441.02158791 -72.58984375 394.828125 C-72.72915314 394.0547794 -72.86846252 393.28143379 -73.01199341 392.48465347 C-74.42310649 384.64555151 -75.82678256 376.80520806 -77.20934772 368.96101761 C-79.95777002 353.37856852 -82.83069501 337.83841631 -86.1171875 322.359375 C-86.32928706 321.35726927 -86.32928706 321.35726927 -86.54567146 320.33491898 C-91.37318652 297.61752039 -97.38560064 275.29151941 -105.1965332 253.41723633 C-109.2077001 242.16424143 -112.18690621 231.25799562 -113.625 219.375 C-113.70919189 218.70065918 -113.79338379 218.02631836 -113.88012695 217.33154297 C-115.35855504 203.54676276 -114.27986692 189.67358783 -113.21069336 175.90283203 C-112.99813941 173.16352149 -112.79426889 170.4236663 -112.59179688 167.68359375 C-112.45882924 165.91402517 -112.32538311 164.14449246 -112.19140625 162.375 C-112.1309462 161.5696582 -112.07048615 160.76431641 -112.00819397 159.93457031 C-111.62272517 154.99559967 -111.08678 150.09892695 -110.4375 145.1875 C-104.6875 146.0625 -104.6875 146.0625 -102.4375 147.1875 C-102.9325 146.259375 -102.9325 146.259375 -103.4375 145.3125 C-110.6439944 122.79220501 -91.8726231 89.90421397 -82.4375 70.1875 C-82.0986377 69.47271484 -81.75977539 68.75792969 -81.41064453 68.02148438 C-72.80771139 49.96750072 -62.41497526 33.44135206 -49.4375 18.1875 C-48.63054687 17.23230469 -47.82359375 16.27710938 -46.9921875 15.29296875 C-35.77963262 2.44598189 -17.45106094 -10.831693 0 0 Z " fill="#538A53" transform="translate(1754.4375,826.8125)"/>
<path d="M0 0 C-0.92029941 7.75680932 -4.22519125 12.67282522 -8.80859375 18.7890625 C-12.05368012 23.54389493 -14.13603249 28.29781441 -15 34 C-12.72923859 34.0275801 -10.45837359 34.04665143 -8.1875 34.0625 C-6.29064453 34.07990234 -6.29064453 34.07990234 -4.35546875 34.09765625 C-1.16865212 34.08209635 1.91052885 33.79137443 5.07421875 33.41796875 C12.12925914 32.73494774 18.97528386 33.49835537 26 34.25 C27.2890625 34.37246094 28.578125 34.49492188 29.90625 34.62109375 C40.60252695 35.71898397 50.38575209 38.19662245 60.4375 41.9375 C61.4574707 42.29618164 61.4574707 42.29618164 62.49804688 42.66210938 C66.50250591 44.14567729 69.34907384 45.61234002 72 49 C72.75 52.25 72.75 52.25 73 55 C65.7078061 57.72515065 58.66209716 58.99217758 50.953125 59.96875 C49.01496918 60.22054016 49.01496918 60.22054016 47.03765869 60.47741699 C36.17004268 61.85378123 25.27316026 62.85314837 14.359375 63.78125 C13.51990829 63.85267212 12.68044159 63.92409424 11.8155365 63.99768066 C4.02226997 64.65761934 -3.77223711 65.30194886 -11.56835938 65.92724609 C-15.89648742 66.27516997 -20.22311377 66.63840365 -24.54918671 67.01097107 C-26.1704291 67.14754858 -27.79216708 67.27838692 -29.41437531 67.40296936 C-49.84336678 68.97413692 -61.93833618 77.73589104 -77 91 C-77.81090088 91.71397949 -77.81090088 91.71397949 -78.63818359 92.44238281 C-89.95269491 102.48082142 -100.16258445 113.52301519 -110 125 C-110.88773882 126.02238036 -111.77578896 127.04449044 -112.6640625 128.06640625 C-139.03000639 155.35403944 -139.03000639 155.35403944 -152.375 188.8125 C-152.25125 189.864375 -152.1275 190.91625 -152 192 C-145.89855527 193.92677202 -141.4468926 191.74356038 -136 189 C-133.52702774 187.37533676 -131.09161189 185.73929739 -128.71484375 183.9765625 C-121.41138559 181.34941928 -112.98041122 186.55275996 -106.4375 189.625 C-105.06754883 190.25535156 -105.06754883 190.25535156 -103.66992188 190.8984375 C-101.44286735 191.92451498 -99.21983587 192.95842164 -97 194 C-97 195.32 -97 196.64 -97 198 C-99.14135632 200.07149647 -101.20418199 201.83197278 -103.5625 203.625 C-104.23635742 204.14843994 -104.91021484 204.67187988 -105.60449219 205.21118164 C-121.57455192 217.46317707 -139.70985426 230.35132132 -161 228 C-168.03493556 226.76580078 -173.33950219 223.33590012 -177.76953125 217.78125 C-181.63870443 212.132822 -184.22259336 206.86709197 -185 200 C-185.07734375 199.360625 -185.1546875 198.72125 -185.234375 198.0625 C-185.77811972 189.36258452 -182.85710302 181.07678579 -180.45898438 172.8125 C-179.918172 170.98848512 -179.918172 170.98848512 -180 169 C-181.05574219 169.90878906 -181.05574219 169.90878906 -182.1328125 170.8359375 C-189.18182184 176.81747284 -196.44446291 182.28999903 -204.01074219 187.59472656 C-206.98767185 189.69772204 -209.93761498 191.83747554 -212.88867188 193.9765625 C-215.21678349 195.66343246 -217.54942387 197.34387756 -219.8828125 199.0234375 C-222.20615061 200.69728514 -224.51292778 202.38433864 -226.8046875 204.1015625 C-235.73907181 210.68954285 -247.53339291 218.5639315 -259 218 C-261.87953304 216.83593345 -263.33723903 215.93951512 -265.11669922 213.41699219 C-266.4281619 209.82841272 -266.24464146 206.28455017 -266.1953125 202.515625 C-266.1924826 201.70003113 -266.18965271 200.88443726 -266.18673706 200.04412842 C-266.17556558 197.44593472 -266.15046675 194.84808905 -266.125 192.25 C-266.11496627 190.48568207 -266.10584111 188.72135872 -266.09765625 186.95703125 C-266.07563619 182.63788727 -266.04112733 178.31900259 -266 174 C-270.2949633 177.66359015 -274.44262376 181.36145873 -278.30883789 185.47607422 C-292.45945261 200.43933647 -313.31522528 218.07403091 -334.5390625 220.26171875 C-340.1384026 220.07892242 -343.41598398 217.67785871 -347.33984375 213.81640625 C-352.10253377 208.60546306 -352.9694176 203.94220508 -353 197 C-351.89917871 178.88107662 -337.46190296 162.26085645 -325.51953125 149.66796875 C-323.44398799 147.47014542 -321.4567295 145.23980942 -319.5 142.9375 C-313.31158276 135.81414203 -306.51842476 129.10101941 -299.328125 122.9921875 C-297.43846962 121.37520051 -295.58309592 119.73332196 -293.734375 118.0703125 C-273.02184984 99.56619972 -239.66111527 74.23328677 -210.22265625 75.609375 C-206.43778723 76.27455409 -203.02078518 77.60114118 -200 80 C-198.78125 82.140625 -198.78125 82.140625 -198 84 C-197.46632813 83.77441406 -196.93265625 83.54882812 -196.3828125 83.31640625 C-192.45753944 82.00571819 -190.10596337 81.46290859 -186.28125 83.3203125 C-177.11989796 89.76020408 -177.11989796 89.76020408 -175.125 93.75 C-174.67545411 101.84182603 -182.13249657 108.33954488 -187 114 C-187.98109893 115.15571533 -188.96154621 116.31198411 -189.94140625 117.46875 C-194.45071288 122.77594615 -199.00127858 128.03510996 -203.6875 133.1875 C-208.32101332 138.30523634 -212.70936915 143.5923256 -217 149 C-217.78890625 149.99386719 -218.5778125 150.98773437 -219.390625 152.01171875 C-227.58975947 161.99163278 -227.58975947 161.99163278 -231 174 C-197.81998698 157.37086612 -157.05506487 134.95435332 -133 106 C-125.0996837 97.0615827 -116.91677808 88.61965241 -107.5 81.25 C-104.85062895 78.86556605 -104.17474548 77.28493645 -103 74 C-104.093125 74.0721875 -105.18625 74.144375 -106.3125 74.21875 C-167.64331411 78.01150575 -167.64331411 78.01150575 -190.1953125 62.8046875 C-192.7574937 61.15604166 -195.13875976 60.01663115 -198 59 C-198.04254356 57.00045254 -198.04080783 54.99958364 -198 53 C-196.28674147 51.28674147 -193.95798839 51.56243341 -191.609375 51.30859375 C-189.785271 51.10447876 -189.785271 51.10447876 -187.92431641 50.89624023 C-187.25088196 50.82235077 -186.57744751 50.7484613 -185.88360596 50.67233276 C-173.37736162 49.29584808 -160.89875077 47.74249158 -148.4296875 46.0625 C-147.14813782 45.89014832 -145.86658813 45.71779663 -144.54620361 45.54022217 C-143.24705017 45.36549377 -141.94789673 45.19076538 -140.609375 45.01074219 C-137.94794308 44.652798 -135.28648322 44.29506258 -132.625 43.9375 C-131.96308655 43.8484993 -131.3011731 43.7594986 -130.61920166 43.6678009 C-112.60822097 41.24912945 -94.63532739 39.03036397 -76.49072266 37.92358398 C-64.60668934 37.30317181 -64.60668934 37.30317181 -54.42578125 31.78515625 C-53.72839844 30.88667969 -53.03101562 29.98820312 -52.3125 29.0625 C-51.91587158 28.56105469 -51.51924316 28.05960938 -51.1105957 27.54296875 C-46.44128351 21.5210138 -42.15991808 15.17688593 -37.90942383 8.85571289 C-28.60803591 -4.80624004 -14.71526876 -7.7312008 0 0 Z M-290 155 C-300.07197453 165.31822786 -300.07197453 165.31822786 -305 178 C-300.25212062 177.50209505 -297.10440559 175.27399341 -293.375 172.5 C-292.45303833 171.82723022 -292.45303833 171.82723022 -291.51245117 171.14086914 C-285.83940519 166.9634778 -280.40144393 162.52120862 -275 158 C-273.20970698 156.53998066 -271.418021 155.08166786 -269.625 153.625 C-264.98449967 149.83063079 -260.40377866 145.97066546 -255.83862305 142.08642578 C-252.40996727 139.17458383 -248.94048327 136.32254767 -245.4375 133.5 C-240.95983613 129.86067959 -236.71853797 126.02750796 -232.49560547 122.10131836 C-226.65961939 116.70526415 -220.52409196 111.66384205 -214.18359375 106.87109375 C-213.46300781 106.25363281 -212.74242188 105.63617187 -212 105 C-212 104.34 -212 103.68 -212 103 C-239.68953463 101.43075764 -272.73710351 136.52175591 -290 155 Z " fill="#538A53" transform="translate(2351,1123)"/>
<path d="M0 0 C12.71489122 9.66331732 17.43321145 25.13869439 19.73754883 40.32714844 C27.55652442 101.04758856 5.51867372 179.89505549 -28.82568359 230.22167969 C-31.16038242 233.22356258 -32.74269803 234.48016069 -36.4375 235.1875 C-34.26490833 238.7763692 -32.09098739 242.3644292 -29.91589355 245.95178223 C-29.1372427 247.2362178 -28.35884187 248.52080498 -27.58068848 249.80554199 C-23.19008297 257.05311382 -18.77039691 264.27755292 -14.25292969 271.44702148 C-6.74212685 283.39613249 -0.00880274 295.70125935 6.5625 308.1875 C7.13645508 309.27369629 7.71041016 310.35989258 8.30175781 311.47900391 C10.08357512 314.85717604 11.85623758 318.23997588 13.625 321.625 C14.1418335 322.61000488 14.65866699 323.59500977 15.19116211 324.60986328 C16.6405982 327.4048396 18.06143104 330.2125851 19.46990967 333.02838135 C20.26283015 334.59530845 21.0680544 336.15602866 21.88067627 337.71282959 C30.69101984 354.63156409 36.57725832 371.6213954 41.73059082 389.88995361 C42.52018681 392.66828137 43.3316199 395.44003273 44.14352036 398.21191025 C45.12006251 401.55021208 46.083817 404.89216348 47.046875 408.234375 C47.40295837 409.46444275 47.75904175 410.6945105 48.12591553 411.96185303 C48.44755676 413.10204895 48.769198 414.24224487 49.10058594 415.41699219 C49.38415955 416.41414246 49.66773315 417.41129272 49.9598999 418.43865967 C50.54737372 421.11849947 50.67921389 423.45474204 50.5625 426.1875 C48.33597884 423.4408829 46.96036373 421.00994962 45.8359375 417.66381836 C45.53091812 416.76931976 45.22589874 415.87482117 44.91163635 414.95321655 C44.59017136 413.98767853 44.26870636 413.0221405 43.9375 412.02734375 C43.22924698 409.94533887 42.52082579 407.86339119 41.81225586 405.78149414 C41.44486298 404.69353546 41.07747009 403.60557678 40.69894409 402.48464966 C34.2563648 383.43856594 27.57026081 364.63779069 19.5625 346.1875 C18.8525275 344.51707031 18.14287818 342.84650322 17.43359375 341.17578125 C2.39508496 306.15494471 -19.65509988 274.77833038 -43.4375 245.1875 C-44.18257812 244.259375 -44.92765625 243.33125 -45.6953125 242.375 C-54.21991294 231.86438154 -63.04460938 221.61773387 -72.1953125 211.6484375 C-74.20778107 209.43963053 -76.17408016 207.20056702 -78.125 204.9375 C-80.81947012 201.83286463 -83.65996686 198.93667273 -86.59814453 196.0637207 C-88.3738553 194.2524203 -89.9984602 192.37558686 -91.62890625 190.43359375 C-94.13109295 187.54410861 -96.71576465 184.98625263 -99.62109375 182.50390625 C-111.57837443 172.1098575 -111.57837443 172.1098575 -112.5078125 165.65234375 C-112.67375822 161.39337674 -112.1412954 157.3852856 -111.4375 153.1875 C-111.24175433 151.68839031 -111.0527688 150.18837988 -110.87109375 148.6875 C-110.72800781 147.5325 -110.58492187 146.3775 -110.4375 145.1875 C-104.6875 146.0625 -104.6875 146.0625 -102.4375 147.1875 C-102.9325 146.259375 -102.9325 146.259375 -103.4375 145.3125 C-110.6439944 122.79220501 -91.8726231 89.90421397 -82.4375 70.1875 C-82.0986377 69.47271484 -81.75977539 68.75792969 -81.41064453 68.02148438 C-72.80771139 49.96750072 -62.41497526 33.44135206 -49.4375 18.1875 C-48.22707031 16.75470703 -48.22707031 16.75470703 -46.9921875 15.29296875 C-35.77963262 2.44598189 -17.45106094 -10.831693 0 0 Z " fill="#011E1E" transform="translate(1754.4375,826.8125)"/>
<path d="M0 0 C1.92326054 1.52729514 2.6512574 3.02249261 3.59375 5.265625 C4.12742187 5.04003906 4.66109375 4.81445312 5.2109375 4.58203125 C9.13621056 3.27134319 11.48778663 2.72853359 15.3125 4.5859375 C24.47385204 11.02582908 24.47385204 11.02582908 26.46875 15.015625 C26.91829589 23.10745103 19.46125343 29.60516988 14.59375 35.265625 C13.61265107 36.42134033 12.63220379 37.57760911 11.65234375 38.734375 C7.14303712 44.04157115 2.59247142 49.30073496 -2.09375 54.453125 C-6.72726332 59.57086134 -11.11561915 64.8579506 -15.40625 70.265625 C-16.19515625 71.25949219 -16.9840625 72.25335937 -17.796875 73.27734375 C-25.99600947 83.25725778 -25.99600947 83.25725778 -29.40625 95.265625 C-26.36165344 93.68788026 -23.32113457 92.10242691 -20.28125 90.515625 C-19.4253125 90.0721875 -18.569375 89.62875 -17.6875 89.171875 C-14.00961285 87.2480571 -10.5837064 85.39555622 -7.2265625 82.9375 C-0.74769992 79.09684462 6.6863856 82.03452464 13.53125 83.765625 C14.9862793 84.12333984 14.9862793 84.12333984 16.47070312 84.48828125 C18.84693032 85.07355888 21.22107042 85.66615751 23.59375 86.265625 C19.13019612 95.98597005 6.19651464 102.82141154 -2.41699219 108.86035156 C-5.39392185 110.96334704 -8.34386498 113.10310054 -11.29492188 115.2421875 C-13.62303349 116.92905746 -15.95567387 118.60950256 -18.2890625 120.2890625 C-20.61240061 121.96291014 -22.91917778 123.64996364 -25.2109375 125.3671875 C-34.14532181 131.95516785 -45.93964291 139.8295565 -57.40625 139.265625 C-60.28578304 138.10155845 -61.74348903 137.20514012 -63.52294922 134.68261719 C-64.8344119 131.09403772 -64.65089146 127.55017517 -64.6015625 123.78125 C-64.5987326 122.96565613 -64.59590271 122.15006226 -64.59298706 121.30975342 C-64.58181558 118.71155972 -64.55671675 116.11371405 -64.53125 113.515625 C-64.52121627 111.75130707 -64.51209111 109.98698372 -64.50390625 108.22265625 C-64.48188619 103.90351227 -64.44737733 99.58462759 -64.40625 95.265625 C-68.7012133 98.92921515 -72.84887376 102.62708373 -76.71508789 106.74169922 C-90.86570261 121.70496147 -111.72147528 139.33965591 -132.9453125 141.52734375 C-138.5446526 141.34454742 -141.82223398 138.94348371 -145.74609375 135.08203125 C-150.50878377 129.87108806 -151.3756676 125.20783008 -151.40625 118.265625 C-150.30542871 100.14670162 -135.86815296 83.52648145 -123.92578125 70.93359375 C-121.85023799 68.73577042 -119.8629795 66.50543442 -117.90625 64.203125 C-111.71783276 57.07976703 -104.92467476 50.36664441 -97.734375 44.2578125 C-95.84471962 42.64082551 -93.98934592 40.99894696 -92.140625 39.3359375 C-72.80193616 22.05917977 -27.60446747 -14.25476599 0 0 Z M-88.40625 76.265625 C-98.47822453 86.58385286 -98.47822453 86.58385286 -103.40625 99.265625 C-98.65837062 98.76772005 -95.51065559 96.53961841 -91.78125 93.765625 C-90.85928833 93.09285522 -90.85928833 93.09285522 -89.91870117 92.40649414 C-84.24565519 88.2291028 -78.80769393 83.78683362 -73.40625 79.265625 C-71.61595698 77.80560566 -69.824271 76.34729286 -68.03125 74.890625 C-63.39074967 71.09625579 -58.81002866 67.23629046 -54.24487305 63.35205078 C-50.81621727 60.44020883 -47.34673327 57.58817267 -43.84375 54.765625 C-39.36608613 51.12630459 -35.12478797 47.29313296 -30.90185547 43.36694336 C-25.06586939 37.97088915 -18.93034196 32.92946705 -12.58984375 28.13671875 C-11.86925781 27.51925781 -11.14867188 26.90179687 -10.40625 26.265625 C-10.40625 25.605625 -10.40625 24.945625 -10.40625 24.265625 C-38.09578463 22.69638264 -71.14335351 57.78738091 -88.40625 76.265625 Z " fill="#042321" transform="translate(2149.40625,1201.734375)"/>
<path d="M0 0 C2.64240101 2.64240101 2.7527556 4.66413131 3.515625 8.31640625 C3.6518074 8.95567551 3.78798981 9.59494476 3.92829895 10.25358582 C4.22171165 11.63360229 4.51185773 13.01431646 4.79910278 14.39562988 C5.56270445 18.06525919 6.35049061 21.72969484 7.13671875 25.39453125 C7.29438217 26.13202606 7.45204559 26.86952087 7.61448669 27.62936401 C8.98957396 34.02975566 10.49986798 40.39283426 12.0625 46.75 C14.22153966 55.5498739 16.15313218 64.37963778 18 73.25 C20.30118092 84.22191649 23.06083273 94.9523456 26.31494141 105.67724609 C26.96648453 107.88636274 27.561688 110.10193423 28.13671875 112.33203125 C32.35410529 128.3711628 39.25975025 144.24321356 50 157 C50.61101562 157.77085937 51.22203125 158.54171875 51.8515625 159.3359375 C65.64516001 175.9677238 85.87261032 184.77672534 107 187 C119.6179541 187.86913042 131.73413487 187.09879879 144 184 C145.07789795 183.73026367 146.1557959 183.46052734 147.26635742 183.18261719 C156.51762441 180.79683091 165.55833944 177.94419638 174.5625 174.75 C175.28076965 174.49633667 175.99903931 174.24267334 176.73907471 173.98132324 C202.86408093 164.71132049 228.17477617 153.34875294 253.46264648 142.03173828 C264.75243834 136.98061242 276.08304973 132.02898876 287.4375 127.125 C288.24075714 126.77775879 289.04401428 126.43051758 289.87161255 126.07275391 C292.14182258 125.09172554 294.41255538 124.11192158 296.68359375 123.1328125 C297.35272797 122.843992 298.02186218 122.55517151 298.71127319 122.25759888 C300.47202896 121.50004168 302.23589184 120.7497174 304 120 C304.91402588 119.60538574 305.82805176 119.21077148 306.76977539 118.80419922 C309 118 309 118 312 118 C308.31122801 126.71347762 298.91034476 133.03794077 291.71875 138.78515625 C289.06498647 140.94705844 286.52750859 143.19244864 284 145.5 C279.81903248 149.31711749 275.48771044 152.88066983 271.03125 156.37109375 C269.15504754 157.90088992 267.55154922 159.48487794 265.90209961 161.26831055 C259.49445528 168.14799442 253.08669569 172.07775799 244.5625 175.9375 C243.28226291 176.53312789 242.00248637 177.12974656 240.72314453 177.72729492 C194.20044651 199.28237668 136.3970342 223.07685127 85.02539062 204.79345703 C74.42065996 200.6390001 66.0075417 193.98150092 58 186 C57.15824219 185.17886719 56.31648438 184.35773438 55.44921875 183.51171875 C18.55752119 145.67860626 13.3866354 80.34437225 4.5 30.875 C4.27436371 29.623703 4.04872742 28.37240601 3.81625366 27.08319092 C3.1742587 23.51211412 2.53894437 19.93992254 1.90625 16.3671875 C1.7129158 15.29182739 1.5195816 14.21646729 1.32038879 13.10852051 C1.14569565 12.11219604 0.9710025 11.11587158 0.79101562 10.08935547 C0.63749634 9.22325653 0.48397705 8.35715759 0.32580566 7.46481323 C-0.00700223 4.94702613 -0.05747479 2.53658954 0 0 Z " fill="#052421" transform="translate(1675,1178)"/>
<path d="M0 0 C1.92326054 1.52729514 2.6512574 3.02249261 3.59375 5.265625 C4.12742187 5.04003906 4.66109375 4.81445312 5.2109375 4.58203125 C9.13621056 3.27134319 11.48778663 2.72853359 15.3125 4.5859375 C24.47385204 11.02582908 24.47385204 11.02582908 26.46875 15.015625 C26.91829589 23.10745103 19.46125343 29.60516988 14.59375 35.265625 C13.61265107 36.42134033 12.63220379 37.57760911 11.65234375 38.734375 C7.14303712 44.04157115 2.59247142 49.30073496 -2.09375 54.453125 C-8.97688088 62.04701397 -15.29369471 70.04613424 -21.40625 78.265625 C-22.21666748 78.12463379 -23.02708496 77.98364258 -23.86206055 77.83837891 C-26.93529335 77.30434101 -30.00872118 76.77144254 -33.08227539 76.23925781 C-35.04002354 75.89993698 -36.99755405 75.55936117 -38.95507812 75.21875 C-47.09278348 73.8106992 -55.23866708 72.48864335 -63.40625 71.265625 C-59.59929473 67.35791855 -55.60685014 63.75583799 -51.46875 60.203125 C-50.81487305 59.63875732 -50.16099609 59.07438965 -49.48730469 58.49291992 C-46.23263287 55.68637211 -42.9691364 52.89032636 -39.69921875 50.1015625 C-38.51818015 49.09380744 -37.3371897 48.08599595 -36.15625 47.078125 C-35.58068359 46.58747559 -35.00511719 46.09682617 -34.41210938 45.59130859 C-30.69388661 42.4083488 -27.06679759 39.14637899 -23.46875 35.828125 C-19.62144109 32.28769154 -15.69124239 29.24648927 -11.40625 26.265625 C-11.07625 25.605625 -10.74625 24.945625 -10.40625 24.265625 C-33.7816122 29.56305257 -53.23891863 44.00696145 -70.40625 60.265625 C-72.45972895 62.09630334 -74.52788136 63.9056678 -76.6171875 65.6953125 C-78.3930089 67.21418714 -78.3930089 67.21418714 -79.8828125 68.7734375 C-83.62386758 72.43089359 -86.57316507 72.75889064 -91.53515625 73.0390625 C-105.39315813 74.13261911 -120.29879494 78.70742348 -133.40625 83.265625 C-131.90133808 79.81457044 -129.89041021 77.39838403 -127.34375 74.640625 C-126.53679687 73.76148438 -125.72984375 72.88234375 -124.8984375 71.9765625 C-124.07601563 71.08195312 -123.25359375 70.18734375 -122.40625 69.265625 C-120.92610992 67.59982275 -119.44692327 65.93317278 -117.96875 64.265625 C-111.61892999 57.21887353 -104.9948579 50.44680408 -97.76953125 44.29296875 C-95.86812033 42.66184103 -93.99895074 41.00714143 -92.13671875 39.33203125 C-72.79764548 22.05686283 -27.60343742 -14.25423408 0 0 Z " fill="#538A53" transform="translate(2149.40625,1201.734375)"/>
<path d="M0 0 C0.99 0.99 0.99 0.99 2 2 C0.28315173 8.75293653 -2.67199054 13.8329436 -6.77514648 19.39331055 C-10.52097727 24.50354274 -12.12717374 28.74474517 -13 35 C-12.06208618 34.93099487 -12.06208618 34.93099487 -11.10522461 34.8605957 C12.30465245 33.25990228 37.92771788 32.98665568 60 42 C61.43472656 42.57041016 61.43472656 42.57041016 62.8984375 43.15234375 C63.59195313 43.43207031 64.28546875 43.71179687 65 44 C65 44.99 65 45.98 65 47 C30.77017081 53.07602659 -4.22808237 55.30876846 -38.875 57.6875 C-39.66333221 57.74221466 -40.45166443 57.79692932 -41.2638855 57.853302 C-46.36938174 58.20277437 -51.47644401 58.51385614 -56.58560181 58.80474854 C-59.10664727 58.94891386 -61.62737065 59.09656628 -64.14804077 59.24700928 C-88.37673937 60.68149397 -112.53021666 61.32466952 -136.80053711 61.26074219 C-141.25285596 61.24912654 -145.70493929 61.2560986 -150.1572504 61.26788712 C-153.67406457 61.27515824 -157.19082376 61.27279754 -160.70763969 61.26763153 C-162.35035673 61.26632094 -163.99307916 61.26784887 -165.63578987 61.27259064 C-175.93848435 61.2959262 -185.81759751 60.64129465 -196 59 C-196.042721 57.33388095 -196.04063832 55.66617115 -196 54 C-194.23638685 52.23638685 -191.66039544 52.53198131 -189.2578125 52.2734375 C-187.98977783 52.13220459 -186.72174316 51.99097168 -185.4152832 51.84545898 C-184.72085114 51.76947479 -184.02641907 51.6934906 -183.3109436 51.61520386 C-168.37905279 49.97440317 -153.50509016 47.99449172 -138.63018799 45.90344238 C-94.93839139 39.76728374 -94.93839139 39.76728374 -75.16601562 38.81542969 C-62.36461461 38.51569064 -62.36461461 38.51569064 -51.91796875 32.0234375 C-50.98573192 30.82413371 -50.07626817 29.60686291 -49.1875 28.375 C-48.6917749 27.72490967 -48.1960498 27.07481934 -47.68530273 26.4050293 C-43.31538641 20.61397963 -39.14950939 14.65273342 -35.09643555 8.63623047 C-26.40621915 -4.06915281 -13.77788256 -5.67784196 0 0 Z " fill="#062423" transform="translate(2754,1122)"/>
<path d="M0 0 C0.67370636 -0.00467285 1.34741272 -0.0093457 2.04153442 -0.01416016 C22.07547602 -0.06818068 42.35106481 3.81821226 57.75 17.5 C60.75 20.93043478 60.75 20.93043478 60.75 24.5 C55.60599351 23.83024909 50.5998114 22.87143548 45.54296875 21.72265625 C44.7775325 21.55124619 44.01209625 21.37983612 43.22346497 21.20323181 C40.79423195 20.65885812 38.36582482 20.11090938 35.9375 19.5625 C30.51523441 18.34179759 25.09147991 17.12842292 19.66448975 15.92889404 C18.05422949 15.56815509 16.44775703 15.19056695 14.84228516 14.80908203 C8.14478164 13.29202779 1.60008494 13.19305791 -5.25 13.25 C-6.44262451 13.25749268 -7.63524902 13.26498535 -8.86401367 13.27270508 C-42.54284682 13.67967943 -75.91446557 23.10632981 -106.25 37.5 C-106.94657715 37.82967773 -107.6431543 38.15935547 -108.36083984 38.49902344 C-118.49170639 43.38465553 -127.4030748 49.5884974 -136.25 56.5 C-137.26320313 57.28761719 -138.27640625 58.07523438 -139.3203125 58.88671875 C-145.37521579 63.71883517 -150.87522422 68.9281856 -156.25 74.5 C-161.25 79.5 -161.25 79.5 -162.94140625 81.0859375 C-168.92031251 86.8111932 -173.87901317 93.18742011 -178.89599609 99.74462891 C-180.11669885 101.32718442 -181.363476 102.88954443 -182.61328125 104.44921875 C-194.40447231 119.2922475 -204.39080439 135.53031637 -214.5625 151.5 C-236.83304213 186.46157502 -236.83304213 186.46157502 -248.25 195.5 C-251.01913197 164.52674616 -229.0347601 132.3614125 -210.015625 109.58203125 C-204.36841311 102.93868447 -198.54068259 96.54236617 -192.25 90.5 C-189.6799871 87.95108737 -187.13748322 85.38295572 -184.62890625 82.7734375 C-177.9067482 75.8168412 -170.82788433 69.71280036 -163.10058594 63.90185547 C-161.21966762 62.47702262 -159.36283498 61.02474819 -157.5078125 59.56640625 C-114.03074539 25.69930259 -55.44212433 0.16475879 0 0 Z " fill="#0A2726" transform="translate(2070.25,1075.5)"/>
<path d="M0 0 C8.73653797 2.94778277 15.90081256 7.72374613 23.18359375 13.27929688 C25.0168543 14.65328945 26.88296771 15.95213147 28.78125 17.234375 C45.38629882 28.49506473 58.78661092 42.91384165 63.5859375 62.86328125 C64.48108867 67.98553517 63.74937902 71.86784567 62.0625 76.6875 C59.64605593 79.63254121 57.75290477 81.50204192 53.890625 81.92578125 C47.99771994 82.09542549 44.63009245 81.75861501 40.0625 77.6875 C34.85855581 72.51903724 30.57418618 66.70905474 26.25 60.8125 C16.40755141 47.43977701 4.10900657 36.85189467 -8.9375 26.6875 C-9.50597656 26.21570313 -10.07445312 25.74390625 -10.66015625 25.2578125 C-13.67131747 22.92918116 -14.92361336 22.68660409 -18.8125 22.9375 C-19.84375 23.185 -20.875 23.4325 -21.9375 23.6875 C-21.9375 21.7075 -21.9375 19.7275 -21.9375 17.6875 C-22.61296875 17.51734375 -23.2884375 17.3471875 -23.984375 17.171875 C-33.51644737 14.58223684 -33.51644737 14.58223684 -35.9375 10.6875 C-36.94592235 7.01017037 -37.34061394 3.89684183 -36.125 0.25 C-30.37679762 -7.31342419 -7.86662459 -2.43318818 0 0 Z " fill="#011E1E" transform="translate(1352.9375,676.3125)"/>
<path d="M0 0 C-1.30187381 2.83978467 -2.71149487 5.00006164 -4.8359375 7.28515625 C-5.39917725 7.89270752 -5.96241699 8.50025879 -6.54272461 9.1262207 C-7.14737549 9.76519287 -7.75202637 10.40416504 -8.375 11.0625 C-9.00349854 11.72789795 -9.63199707 12.3932959 -10.27954102 13.07885742 C-28.53103688 32.22830754 -51.54156504 50.46050342 -79.1875 51.375 C-88.39748218 51.08377527 -96.40887323 48.66706141 -103 42 C-107.0556274 36.87891116 -107.61318673 31.5617598 -107.39453125 25.1640625 C-106.49109871 17.91871246 -103.90769659 10.18718628 -100 4 C-96.72001695 1.84270193 -94.01046378 1.76519935 -90.140625 1.8046875 C-89.02558594 1.81113281 -87.91054687 1.81757812 -86.76171875 1.82421875 C-85.60285156 1.84097656 -84.44398438 1.85773438 -83.25 1.875 C-81.48849609 1.88853516 -81.48849609 1.88853516 -79.69140625 1.90234375 C-76.79406464 1.92589937 -73.89713559 1.95879348 -71 2 C-72.40723575 5.66931302 -73.96021694 8.53199834 -76.3125 11.6875 C-82.75894195 20.58375188 -82.75894195 20.58375188 -85 31 C-76.21473858 27.09032869 -69.17864501 22.37052269 -62 16 C-60.64648438 14.81083984 -60.64648438 14.81083984 -59.265625 13.59765625 C-55.76764448 10.48776529 -52.3093648 7.37286254 -49.0625 4 C-45.91735952 0.95016681 -43.10658276 0.85266235 -38.90625 0.68359375 C-37.88394287 0.64161865 -36.86163574 0.59964355 -35.80834961 0.55639648 C-34.17071655 0.49754272 -34.17071655 0.49754272 -32.5 0.4375 C-30.83239624 0.37381226 -30.83239624 0.37381226 -29.13110352 0.30883789 C-19.41760052 -0.03695475 -9.71811746 -0.10424679 0 0 Z " fill="#072524" transform="translate(2686,1428)"/>
<path d="M0 0 C23.47572816 5.73786408 23.47572816 5.73786408 28 8 C27.54938717 10.62857482 27.05494955 12.88040392 25.9375 15.3125 C24.6509362 19.00064955 24.86792087 22.10366561 25 26 C31.10144473 27.92677202 35.5531074 25.74356038 41 23 C43.47297226 21.37533676 45.90838811 19.73929739 48.28515625 17.9765625 C55.58861441 15.34941928 64.01958878 20.55275996 70.5625 23.625 C71.47580078 24.04523438 72.38910156 24.46546875 73.33007812 24.8984375 C75.55713265 25.92451498 77.78016413 26.95842164 80 28 C80 29.32 80 30.64 80 32 C77.85864368 34.07149647 75.79581801 35.83197278 73.4375 37.625 C72.76364258 38.14843994 72.08978516 38.67187988 71.39550781 39.21118164 C55.42544808 51.46317707 37.29014574 64.35132132 16 62 C8.96506444 60.76580078 3.66049781 57.33590012 -0.76953125 51.78125 C-4.63870443 46.132822 -7.22259336 40.86709197 -8 34 C-8.07734375 33.360625 -8.1546875 32.72125 -8.234375 32.0625 C-8.62392859 25.82964258 -7.24386297 20.17364258 -5.6875 14.1875 C-5.47464355 13.36290283 -5.26178711 12.53830566 -5.04248047 11.6887207 C-3.8596428 7.36735583 -2.57998582 3.73000883 0 0 Z " fill="#042321" transform="translate(2174,1289)"/>
<path d="M0 0 C5.8558789 0.28565263 9.13770787 2.86182986 13 7 C15.99434629 10.67115058 18.83900658 14.44056442 21.671875 18.23681641 C23.82014582 21.08880389 26.03607035 23.88639068 28.25 26.6875 C29.17468732 27.86441982 30.0991605 29.04150791 31.0234375 30.21875 C33.12451506 32.892078 35.23648873 35.55648696 37.3515625 38.21875 C45.73909353 48.82733674 53.49309975 59.75446588 61 71 C61.90581981 72.34664363 62.81204923 73.69301187 63.71875 75.0390625 C74.30149884 90.78628945 84.30370992 106.87630543 94.20117188 123.06005859 C95.66668099 125.45523514 97.13707055 127.84728277 98.609375 130.23828125 C107.7669368 145.1985342 115.88842712 160.76879865 124 176.3125 C124.52037842 177.30475586 125.04075684 178.29701172 125.5769043 179.31933594 C127.04132167 182.14383899 128.47698274 184.98118987 129.90026855 187.82659912 C130.69663104 189.40045148 131.50527984 190.96810683 132.32141113 192.53179932 C141.13033859 209.44837759 147.01542916 226.43627353 152.16809082 244.70245361 C152.95768681 247.48078137 153.7691199 250.25253273 154.58102036 253.02441025 C155.55756251 256.36271208 156.521317 259.70466348 157.484375 263.046875 C157.84045837 264.27694275 158.19654175 265.5070105 158.56341553 266.77435303 C158.88505676 267.91454895 159.206698 269.05474487 159.53808594 270.22949219 C159.82165955 271.22664246 160.10523315 272.22379272 160.3973999 273.25115967 C160.98487372 275.93099947 161.11671389 278.26724204 161 281 C158.77347884 278.2533829 157.39786373 275.82244962 156.2734375 272.47631836 C155.96841812 271.58181976 155.66339874 270.68732117 155.34913635 269.76571655 C155.02767136 268.80017853 154.70620636 267.8346405 154.375 266.83984375 C153.66674698 264.75783887 152.95832579 262.67589119 152.24975586 260.59399414 C151.88236298 259.50603546 151.51497009 258.41807678 151.13644409 257.29714966 C144.6938648 238.25106594 138.00776081 219.45029069 130 201 C129.2900275 199.32957031 128.58037818 197.65900322 127.87109375 195.98828125 C112.83258496 160.96744471 90.78240012 129.59083038 67 100 C66.25492188 99.071875 65.50984375 98.14375 64.7421875 97.1875 C56.21758706 86.67688154 47.39289062 76.43023387 38.2421875 66.4609375 C36.22971893 64.25213053 34.26341984 62.01306702 32.3125 59.75 C29.61802988 56.64536463 26.77753314 53.74917273 23.83935547 50.8762207 C22.0636447 49.0649203 20.4390398 47.18808686 18.80859375 45.24609375 C16.30640705 42.35660861 13.72173535 39.79875263 10.81640625 37.31640625 C-1.14087443 26.9223575 -1.14087443 26.9223575 -2.0703125 20.46484375 C-2.23625822 16.20587674 -1.7037954 12.1977856 -1 8 C-0.80425433 6.50089031 -0.6152688 5.00087988 -0.43359375 3.5 C-0.29050781 2.345 -0.14742187 1.19 0 0 Z " fill="#0C2A28" transform="translate(1644,972)"/>
<path d="M0 0 C3.91838704 3.38887528 8.96717236 8.61977365 9.515625 13.98828125 C9.53882812 15.13876953 9.53882812 15.13876953 9.5625 16.3125 C9.58828125 17.07175781 9.6140625 17.83101562 9.640625 18.61328125 C9.19617461 21.84612873 8.42093112 23.48755812 6.3125 26 C3.69325282 26.92052155 1.44925252 27.51204767 -1.25 28 C-2.77421244 28.31396951 -4.2976294 28.6318205 -5.8203125 28.953125 C-6.6134082 29.11748047 -7.40650391 29.28183594 -8.22363281 29.45117188 C-13.19724421 30.55904726 -18.07794809 32.01689824 -22.97290039 33.42578125 C-28.49689834 35 -28.49689834 35 -30.6875 35 C-31.0175 34.01 -31.3475 33.02 -31.6875 32 C-32.16501709 32.37801758 -32.64253418 32.75603516 -33.13452148 33.14550781 C-42.0410175 39.34826347 -52.31154638 40.69743997 -62.75 42.75 C-64.65204919 43.13757759 -66.55374613 43.52688801 -68.45507812 43.91796875 C-71.95765728 44.63677701 -75.46209792 45.34457781 -78.96899414 46.04199219 C-82.90207692 46.82579856 -86.8091042 47.69856068 -90.71238708 48.61895752 C-93.38973496 49.13547648 -95.97186974 49.13926309 -98.6875 49 C-94.80609457 44.87084529 -90.64187586 41.61275923 -86 38.375 C-85.25959473 37.85574951 -84.51918945 37.33649902 -83.75634766 36.80151367 C-76.29813227 31.63156092 -68.59382454 26.90835564 -60.79833984 22.26855469 C-58.83617906 21.08935189 -56.89405063 19.88399471 -54.95703125 18.6640625 C-47.82560384 14.20522518 -40.50932503 10.28939105 -32.9375 6.625 C-31.66072388 5.99936157 -31.66072388 5.99936157 -30.3581543 5.36108398 C-21.28796739 1.06974688 -9.97625142 -3.71209355 0 0 Z " fill="#092726" transform="translate(3035.6875,1101)"/>
<path d="M0 0 C-0.92029941 7.75680932 -4.22519125 12.67282522 -8.80859375 18.7890625 C-12.05368012 23.54389493 -14.13603249 28.29781441 -15 34 C-12.72923859 34.0275801 -10.45837359 34.04665143 -8.1875 34.0625 C-6.29064453 34.07990234 -6.29064453 34.07990234 -4.35546875 34.09765625 C-1.16865212 34.08209635 1.91052885 33.79137443 5.07421875 33.41796875 C12.12925914 32.73494774 18.97528386 33.49835537 26 34.25 C27.2890625 34.37246094 28.578125 34.49492188 29.90625 34.62109375 C40.64034745 35.72286595 50.42749827 38.20799935 60.5 42 C61.18835937 42.2475 61.87671875 42.495 62.5859375 42.75 C68.93511671 45.12167784 68.93511671 45.12167784 71 48 C71 48.66 71 49.32 71 50 C59.79457035 49.38927753 48.65723968 48.44781941 37.5 47.25 C36.29310516 47.12177856 36.29310516 47.12177856 35.06182861 46.9909668 C10.2191261 44.34499131 -14.57547641 41.24809928 -39.3125 37.75 C-40.4689502 37.58693359 -41.62540039 37.42386719 -42.81689453 37.25585938 C-43.86345215 37.10439453 -44.91000977 36.95292969 -45.98828125 36.796875 C-47.34240112 36.60109863 -47.34240112 36.60109863 -48.72387695 36.40136719 C-51 36 -51 36 -54 35 C-53.53368918 30.12493237 -52.37757769 27.747978 -49.125 24.125 C-44.58426103 18.85164979 -40.69278725 13.31162826 -36.89501953 7.48291016 C-33.57801556 2.49818006 -30.49036974 -1.04216548 -24.75 -3.25 C-16.00476948 -4.9990461 -7.97057042 -4.18762861 0 0 Z " fill="#0A2826" transform="translate(2351,1123)"/>
<path d="M0 0 C0.94875 0.42152344 1.8975 0.84304688 2.875 1.27734375 C14.59527078 7.02094236 23.77024845 17.15597404 29.375 28.875 C30.5549155 34.77457752 31.54867619 41.3767202 28.0625 46.625 C25.14561146 49.98384135 25.14561146 49.98384135 21.90234375 50.34375 C9.87668741 50.81766749 9.87668741 50.81766749 5.25 46.9375 C2.88489705 44.58837748 1.88922153 42.72958851 0.609375 39.60546875 C-4.90663845 27.24799201 -19.07504245 19.414724 -29.9921875 12.34350586 C-35.82678721 8.43934703 -35.82678721 8.43934703 -36.75 6.09765625 C-37.41778254 0.66148902 -37.41778254 0.66148902 -35.5 -2.375 C-24.41783428 -9.57840772 -11.06931908 -5.07805013 0 0 Z " fill="#011E1E" transform="translate(1328,712)"/>
<path d="M0 0 C0.66 0.66 1.32 1.32 2 2 C1.54917531 3.46067199 1.08906463 4.91848032 0.625 6.375 C0.24214844 7.59316406 0.24214844 7.59316406 -0.1484375 8.8359375 C-1 11 -1 11 -3 13 C-5.90146247 13.31706703 -8.71438647 13.51627426 -11.625 13.625 C-12.46716064 13.66294678 -13.30932129 13.70089355 -14.17700195 13.73999023 C-22.1192964 14.06883746 -30.05227838 14.09866137 -38 14 C-30.97907628 0.76825914 -30.97907628 0.76825914 -23.6875 -1.9375 C-15.4198658 -4.16340152 -7.90009114 -3.25561412 0 0 Z " fill="#E7FAE7" transform="translate(2754,1122)"/>
<path d="M0 0 C5.61256674 1.62059431 10.5518804 4.21448211 15.6875 6.9375 C16.54150391 7.38029297 17.39550781 7.82308594 18.27539062 8.27929688 C19.09587891 8.71177734 19.91636719 9.14425781 20.76171875 9.58984375 C21.8748645 10.17560181 21.8748645 10.17560181 23.01049805 10.77319336 C24.98852004 11.992921 26.43619162 13.29152621 28 15 C24.05321073 17.63119284 20.70453977 18.0627272 16 18 C8.62445644 15.66441121 3.73781464 11.78344139 0 5 C-0.25 2.125 -0.25 2.125 0 0 Z " fill="#0C2B27" transform="translate(2268,1325)"/>
<path d="M0 0 C5.8531432 0.28551918 9.14486568 2.8581825 13 7 C15.66157046 10.21238688 18.17656368 13.5337611 20.66796875 16.87890625 C22.72599129 19.63327812 24.83600953 22.32859108 27 25 C26.67 25.66 26.34 26.32 26 27 C25.40574219 26.45472656 24.81148437 25.90945313 24.19921875 25.34765625 C18.78642085 20.4231045 13.26392498 15.70386926 7.54296875 11.140625 C4.84312695 8.86794711 2.32748029 6.6575897 0 4 C0 2.68 0 1.36 0 0 Z " fill="#E2F5E3" transform="translate(1644,972)"/>
<path d="M0 0 C2.65699481 2.65699481 2.95085052 5.42725098 3.69140625 8.984375 C3.841577 9.6775885 3.99174774 10.370802 4.14646912 11.08502197 C4.62546791 13.30524631 5.09392108 15.52755589 5.5625 17.75 C5.88150911 19.23191141 6.20116326 20.71368413 6.52148438 22.1953125 C7.79328166 28.11390982 9.04836305 34.01894157 10 40 C9.34 40 8.68 40 8 40 C8 41.65 8 43.3 8 45 C7.67 45 7.34 45 7 45 C5.99762171 39.39589795 5.00087081 33.79083485 4.00927734 28.18481445 C3.67129784 26.27861651 3.33179346 24.37268827 2.99072266 22.46704102 C2.50019758 19.72481991 2.01519928 16.98166951 1.53125 14.23828125 C1.30157532 12.96456413 1.30157532 12.96456413 1.06726074 11.66511536 C0.3783856 7.73054229 -0.19977552 4.01334749 0 0 Z " fill="#0D2E27" transform="translate(1675,1178)"/>
<path d="M0 0 C3.115894 3.115894 3.30822643 6.9625429 4.1875 11.1875 C4.37763672 12.02603516 4.56777344 12.86457031 4.76367188 13.72851562 C5.84928426 18.86013725 6.09182371 22.86077883 5 28 C4.67 28 4.34 28 4 28 C3.32634616 24.27206058 2.66231022 20.54247005 2 16.8125 C1.80921875 15.75740234 1.6184375 14.70230469 1.421875 13.61523438 C1.24140625 12.59365234 1.0609375 11.57207031 0.875 10.51953125 C0.70742187 9.58214111 0.53984375 8.64475098 0.3671875 7.67895508 C0.01100934 5.08032281 -0.06645996 2.61893788 0 0 Z " fill="#2A523A" transform="translate(1675,1178)"/>
<path d="M0 0 C0.66 0.33 1.32 0.66 2 1 C-4.6 7.6 -11.2 14.2 -18 21 C-18.66 20.67 -19.32 20.34 -20 20 C-16.27755957 15.44001047 -12.45079695 11.52067741 -7.96875 7.7109375 C-5.16594984 5.27517069 -2.59235026 2.65715902 0 0 Z " fill="#4C6460" transform="translate(1895,1149)"/>
<path d="M0 0 C0 3 0 3 -2.625 5.91796875 C-3.74249406 7.01550756 -4.86785643 8.10507895 -6 9.1875 C-6.57234375 9.74630859 -7.1446875 10.30511719 -7.734375 10.88085938 C-9.14962788 12.26073093 -10.57397155 13.63126734 -12 15 C-12.66 14.67 -13.32 14.34 -14 14 C-12.42100123 12.22513306 -10.83707231 10.45512408 -9.25 8.6875 C-8.8065625 8.18798828 -8.363125 7.68847656 -7.90625 7.17382812 C-5.453615 4.45068191 -3.02719984 2.07235877 0 0 Z " fill="#5B8660" transform="translate(2904,1177)"/>
<path d="M0 0 C3.10190545 4.65285818 4.33846504 9.41532676 4 15 C0.52094681 11.36280803 -0.4344997 6.88215261 -1 2 C-0.67 1.34 -0.34 0.68 0 0 Z " fill="#26443D" transform="translate(1801,1238)"/>
<path d="M0 0 C2.87511449 2.87511449 2.83614951 6.10482694 3 10 C2.5625 13 2.5625 13 2 15 C1.67 15 1.34 15 1 15 C-0.03590199 9.94997778 -0.10251672 5.12583611 0 0 Z " fill="#214336" transform="translate(1678,1191)"/>
<path d="M0 0 C2 3 2 3 2 6 C1.34 6 0.68 6 0 6 C0 7.65 0 9.3 0 11 C-0.33 11 -0.66 11 -1 11 C-1.33 7.7 -1.66 4.4 -2 1 C-1.34 0.67 -0.68 0.34 0 0 Z " fill="#1B4330" transform="translate(1683,1212)"/>
</svg>
